<svg xmlns="http://www.w3.org/2000/svg" xmlns:xlink="http://www.w3.org/1999/xlink" width="500" zoomAndPan="magnify" viewBox="0 0 375 374.999991" height="500" preserveAspectRatio="xMidYMid meet" version="1.2"><defs><clipPath id="1232254262"><path d="M 112.941406 205 L 217.519531 205 L 217.519531 233.308594 L 112.941406 233.308594 Z M 112.941406 205 "/></clipPath><clipPath id="a9b3e7e0b4"><path d="M 168.613281 227.28125 C 142.054688 222.558594 137.097656 222.203125 133.671875 222.441406 C 131.429688 222.675781 129.660156 223.855469 128.363281 223.621094 C 127.417969 223.382812 126.707031 222.914062 126.238281 222.320312 C 125.765625 221.613281 125.292969 220.667969 125.410156 219.84375 C 125.648438 218.78125 126.238281 217.363281 128.007812 216.65625 C 134.855469 213.707031 184.3125 218.191406 190.6875 222.085938 C 192.222656 223.148438 192.929688 224.566406 192.695312 225.507812 C 192.574219 226.453125 191.277344 227.632812 189.625 227.988281 C 185.257812 229.050781 172.390625 223.382812 163.773438 222.441406 C 155.15625 221.496094 141.9375 224.328125 137.921875 222.441406 C 136.386719 221.730469 135.324219 220.316406 135.445312 219.253906 C 135.445312 218.308594 136.742188 216.773438 138.160156 216.421875 C 140.636719 215.710938 145.125 218.664062 149.726562 219.726562 C 156.335938 221.257812 165.070312 222.792969 174.515625 223.976562 C 186.554688 225.628906 212.050781 224.566406 216.183594 227.871094 C 217.363281 228.8125 217.601562 230.46875 217.246094 231.292969 C 216.890625 232.121094 215.359375 233.0625 214.53125 232.945312 C 213.707031 232.828125 213.585938 231.175781 212.171875 230.230469 C 208.273438 227.871094 196.472656 225.746094 186.082031 223.976562 C 170.972656 221.257812 136.859375 220.90625 130.25 217.71875 C 128.480469 216.890625 127.769531 215.949219 127.535156 214.886719 C 127.417969 214.175781 128.125 212.996094 128.714844 212.523438 C 129.304688 212.050781 129.660156 211.933594 130.722656 211.933594 C 134.261719 211.933594 145.832031 216.890625 153.742188 218.898438 C 162.003906 221.023438 175.460938 221.851562 179.238281 224.328125 C 180.652344 225.273438 181.597656 226.453125 181.480469 227.398438 C 181.480469 228.34375 180.417969 229.523438 178.648438 230.113281 C 173.6875 231.765625 148.664062 228.105469 143.941406 226.453125 C 142.644531 225.863281 142.054688 225.507812 141.582031 224.800781 C 141.226562 223.976562 141.109375 222.558594 141.582031 221.851562 C 142.289062 220.90625 145.003906 219.84375 146.421875 220.078125 C 147.601562 220.316406 149.492188 221.730469 149.609375 222.792969 C 149.726562 223.855469 148.664062 225.628906 147.246094 226.335938 C 144.0625 227.871094 131.546875 226.453125 128.363281 224.683594 C 126.945312 223.855469 126.117188 222.675781 126.117188 221.613281 C 126.117188 220.433594 127.535156 218.664062 128.953125 218.074219 C 130.722656 217.363281 135.089844 218.074219 136.742188 218.78125 C 137.6875 219.136719 138.277344 219.726562 138.632812 220.433594 C 138.984375 221.140625 139.222656 222.085938 138.867188 222.914062 C 138.511719 223.855469 137.214844 225.15625 135.917969 225.507812 C 134.144531 226.097656 130.605469 225.390625 129.1875 224.683594 C 128.242188 224.328125 127.652344 223.621094 127.417969 222.914062 C 127.0625 222.203125 126.945312 221.140625 127.179688 220.316406 C 127.652344 219.371094 128.832031 218.308594 130.484375 217.835938 C 134.261719 216.773438 147.246094 217.953125 150.554688 219.371094 C 151.851562 219.960938 152.558594 220.667969 152.914062 221.613281 C 153.148438 222.558594 152.914062 224.09375 152.324219 224.800781 C 151.734375 225.628906 150.90625 225.980469 149.371094 226.21875 C 145.832031 226.691406 132.730469 224.800781 130.132812 223.148438 C 129.1875 222.441406 128.832031 221.851562 128.714844 221.023438 C 128.480469 220.199219 128.714844 218.898438 129.421875 217.953125 C 130.605469 216.539062 136.625 215.121094 136.507812 214.648438 C 136.386719 214.175781 133.082031 215.003906 130.957031 214.765625 C 128.007812 214.414062 122.105469 213.113281 120.214844 211.933594 C 119.273438 211.460938 118.800781 210.871094 118.445312 210.164062 C 118.210938 209.335938 118.09375 208.394531 118.445312 207.566406 C 118.917969 206.621094 120.097656 205.441406 121.632812 205.207031 C 125.527344 204.734375 139.339844 210.636719 142.054688 213.707031 C 143.351562 215.003906 143.589844 216.890625 143.234375 217.953125 C 142.878906 218.898438 142.054688 219.371094 140.753906 219.84375 C 137.449219 221.023438 125.882812 222.675781 122.578125 221.257812 C 120.925781 220.550781 119.625 218.898438 119.625 217.71875 C 119.625 216.65625 120.570312 215.121094 121.988281 214.53125 C 124.585938 213.585938 134.027344 215.828125 136.507812 217.363281 C 137.6875 218.074219 138.277344 219.015625 138.394531 219.960938 C 138.632812 220.667969 138.277344 221.730469 137.921875 222.320312 C 137.449219 222.914062 136.976562 223.265625 135.917969 223.738281 C 133.082031 225.035156 121.398438 228.34375 118.683594 227.042969 C 117.265625 226.453125 116.675781 224.683594 116.675781 223.621094 C 116.675781 222.675781 117.265625 221.613281 118.445312 220.90625 C 120.6875 219.371094 129.1875 218.542969 131.902344 218.542969 C 133.082031 218.542969 133.671875 218.664062 134.382812 219.136719 C 134.972656 219.488281 135.5625 220.433594 135.796875 221.140625 C 136.035156 221.851562 135.917969 222.914062 135.5625 223.621094 C 135.207031 224.328125 134.855469 224.917969 133.792969 225.390625 C 130.722656 226.453125 116.910156 226.453125 114.316406 224.683594 C 113.253906 223.976562 112.898438 222.675781 113.015625 221.730469 C 113.015625 220.789062 113.605469 219.605469 114.667969 218.898438 C 116.910156 217.480469 125.527344 217.128906 128.242188 217.246094 C 129.421875 217.363281 130.015625 217.480469 130.722656 217.835938 C 131.3125 218.308594 132.019531 219.136719 132.140625 219.960938 C 132.257812 221.023438 131.429688 223.03125 130.722656 223.738281 C 130.25 224.09375 129.894531 224.328125 129.1875 224.328125 C 127.652344 224.328125 123.167969 222.792969 122.105469 221.378906 C 121.398438 220.433594 121.515625 218.898438 121.871094 217.953125 C 122.222656 217.128906 123.050781 216.421875 124.464844 215.828125 C 127.652344 214.765625 139.339844 214.765625 142.171875 215.59375 C 143.234375 215.949219 143.707031 216.300781 144.0625 216.890625 C 144.53125 217.71875 145.003906 219.371094 144.652344 220.316406 C 144.179688 221.378906 142.054688 222.675781 140.992188 222.792969 C 140.164062 222.792969 139.339844 222.441406 138.75 221.851562 C 138.160156 221.140625 137.449219 219.726562 137.570312 218.664062 C 137.6875 217.71875 138.75 216.421875 139.457031 215.949219 C 140.164062 215.476562 141.109375 215.359375 141.816406 215.59375 C 142.527344 215.710938 143.351562 216.066406 143.824219 216.65625 C 144.414062 217.363281 145.003906 219.015625 144.652344 219.960938 C 144.414062 221.023438 143.117188 222.085938 141.347656 222.792969 C 137.921875 223.976562 127.0625 223.855469 124.113281 222.914062 C 123.050781 222.558594 122.578125 221.96875 122.105469 221.378906 C 121.75 220.667969 121.398438 219.605469 121.632812 218.78125 C 121.988281 217.835938 123.167969 216.183594 124.464844 215.828125 C 126.238281 215.476562 130.25 217.128906 131.3125 218.425781 C 132.140625 219.253906 132.257812 220.667969 132.140625 221.613281 C 132.019531 222.441406 131.546875 223.148438 130.722656 223.738281 C 129.304688 224.683594 125.648438 224.917969 123.050781 225.15625 C 120.214844 225.390625 115.847656 225.746094 114.316406 224.683594 C 113.371094 224.09375 112.898438 222.675781 113.015625 221.730469 C 113.015625 220.789062 113.605469 219.605469 114.667969 218.898438 C 116.558594 217.835938 121.398438 217.953125 124.703125 217.953125 C 128.007812 218.074219 132.609375 218.074219 134.382812 219.136719 C 135.207031 219.605469 135.5625 220.433594 135.796875 221.140625 C 136.035156 221.851562 136.035156 222.914062 135.5625 223.621094 C 135.089844 224.445312 134.261719 225.035156 132.964844 225.628906 C 130.132812 226.691406 121.042969 228.34375 118.683594 227.042969 C 117.382812 226.453125 116.558594 224.683594 116.675781 223.621094 C 116.792969 222.441406 117.972656 221.257812 119.625 220.433594 C 122.695312 218.664062 132.847656 216.300781 135.679688 217.128906 C 136.976562 217.363281 137.804688 218.308594 138.160156 219.136719 C 138.511719 219.84375 138.632812 220.90625 138.277344 221.613281 C 137.804688 222.441406 136.625 223.621094 135.089844 223.855469 C 132.257812 224.566406 124.230469 222.675781 121.75 221.023438 C 120.453125 220.199219 119.625 218.898438 119.625 217.71875 C 119.625 216.65625 120.453125 215.359375 121.988281 214.53125 C 125.175781 212.878906 138.277344 211.582031 141.347656 213.351562 C 142.878906 214.175781 143.589844 216.066406 143.46875 217.246094 C 143.46875 218.191406 142.289062 219.253906 141.464844 219.605469 C 140.753906 219.960938 140.285156 219.84375 139.101562 219.726562 C 135.796875 219.015625 123.050781 213.941406 120.214844 211.933594 C 119.152344 211.226562 118.800781 210.871094 118.445312 210.164062 C 118.210938 209.335938 118.09375 208.394531 118.445312 207.566406 C 118.917969 206.621094 120.097656 205.558594 121.632812 205.207031 C 124.347656 204.734375 130.25 206.503906 133.792969 207.921875 C 136.859375 209.335938 140.753906 211.109375 141.816406 213.351562 C 142.761719 215.121094 142.527344 217.835938 141.582031 219.253906 C 140.753906 220.789062 138.277344 221.613281 136.386719 222.320312 C 134.5 222.914062 131.3125 223.855469 130.132812 223.148438 C 129.070312 222.558594 128.480469 220.433594 128.714844 219.371094 C 128.953125 218.308594 130.015625 217.246094 131.667969 216.773438 C 135.089844 215.710938 147.367188 217.835938 150.554688 219.371094 C 151.851562 219.960938 152.558594 220.667969 152.914062 221.613281 C 153.148438 222.558594 152.796875 224.09375 152.324219 224.800781 C 151.851562 225.507812 151.378906 225.863281 150.199219 226.21875 C 147.011719 227.042969 133.320312 225.980469 130.015625 225.035156 C 128.832031 224.683594 128.363281 224.328125 127.769531 223.621094 C 127.300781 223.03125 127.0625 221.96875 127.0625 221.257812 C 127.179688 220.433594 127.535156 219.488281 128.125 218.898438 C 128.714844 218.308594 129.421875 217.953125 130.484375 217.835938 C 132.140625 217.601562 136.152344 218.074219 137.449219 219.136719 C 138.511719 220.078125 139.101562 221.851562 138.867188 222.914062 C 138.632812 223.976562 137.214844 225.15625 135.917969 225.507812 C 134.027344 226.097656 130.015625 225.746094 128.363281 224.683594 C 127.179688 223.855469 125.882812 221.851562 126.117188 220.789062 C 126.355469 219.726562 128.007812 218.542969 129.777344 218.074219 C 133.4375 217.128906 145.125 218.78125 147.839844 220.433594 C 149.019531 221.023438 149.371094 221.96875 149.609375 222.792969 C 149.726562 223.503906 149.609375 224.445312 149.136719 225.035156 C 148.191406 225.863281 145.359375 226.691406 143.941406 226.453125 C 143 226.21875 142.054688 225.507812 141.582031 224.800781 C 141.226562 224.09375 140.992188 223.265625 141.347656 222.558594 C 141.699219 221.613281 142.878906 220.667969 144.769531 220.199219 C 150.082031 218.898438 174.632812 221.613281 179.238281 224.328125 C 180.773438 225.15625 181.363281 226.453125 181.480469 227.398438 C 181.597656 228.105469 181.125 228.8125 180.652344 229.285156 C 180.0625 229.757812 179.355469 229.996094 177.9375 229.996094 C 172.273438 230.113281 142.289062 222.675781 134.261719 219.726562 C 131.078125 218.425781 128.714844 217.71875 128.007812 216.300781 C 127.417969 215.359375 127.652344 213.707031 128.242188 212.996094 C 128.714844 212.289062 129.304688 212.171875 130.722656 211.933594 C 137.214844 210.988281 172.863281 216.066406 187.144531 218.542969 C 196.117188 220.078125 203.316406 221.496094 208.628906 223.621094 C 212.050781 224.917969 215.476562 226.691406 216.65625 228.222656 C 217.363281 229.050781 217.601562 229.996094 217.480469 230.703125 C 217.246094 231.410156 216.890625 232.238281 215.828125 232.710938 C 212.40625 234.246094 198.832031 232.355469 189.035156 231.410156 C 176.757812 230.230469 157.398438 227.753906 148.191406 225.628906 C 143.234375 224.566406 139.222656 223.976562 137.214844 222.203125 C 136.035156 221.257812 135.324219 219.605469 135.5625 218.542969 C 135.679688 217.601562 136.742188 216.890625 138.160156 216.421875 C 141.464844 215.238281 151.144531 215.949219 156.101562 216.066406 C 159.523438 216.183594 161.058594 216.183594 164.71875 216.65625 C 171.09375 217.601562 186.910156 219.488281 190.6875 222.085938 C 192.105469 223.148438 192.929688 224.566406 192.695312 225.507812 C 192.574219 226.453125 191.511719 227.398438 189.625 227.988281 C 182.660156 230.230469 143.589844 225.628906 134.144531 224.445312 C 130.839844 224.09375 128.953125 224.09375 127.535156 223.382812 C 126.707031 222.914062 126 222.320312 125.765625 221.496094 C 125.410156 220.550781 125.765625 218.425781 126.472656 217.480469 C 127.300781 216.65625 128.480469 216.300781 130.367188 215.949219 C 134.855469 215.359375 146.65625 216.65625 153.859375 217.601562 C 159.878906 218.308594 167.550781 219.488281 170.382812 220.667969 C 171.445312 221.140625 171.917969 221.378906 172.390625 222.085938 C 172.863281 222.914062 173.097656 224.445312 172.746094 225.273438 C 172.15625 226.21875 168.613281 227.28125 168.613281 227.28125 "/></clipPath><clipPath id="c80868ec9d"><path d="M 98 135.761719 L 186.0625 135.761719 L 186.0625 156.960938 L 98 156.960938 Z M 98 135.761719 "/></clipPath><clipPath id="f5ff7487d8"><path d="M 158.578125 146.1875 C 164.128906 148.664062 164.011719 150.082031 163.65625 150.90625 C 163.300781 151.617188 162.59375 152.207031 161.292969 152.558594 C 157.164062 153.742188 143.117188 150.671875 133.320312 150.199219 C 122.8125 149.726562 104.636719 152.207031 100.148438 149.726562 C 98.613281 148.902344 97.90625 147.367188 98.023438 146.421875 C 98.144531 145.476562 99.324219 144.414062 100.976562 143.824219 C 105.226562 142.644531 122.929688 144.652344 126.472656 146.777344 C 127.890625 147.601562 128.480469 148.78125 128.480469 149.84375 C 128.480469 150.671875 128.125 151.851562 127.0625 152.324219 C 124.464844 153.503906 110.773438 150.671875 108.175781 148.308594 C 106.996094 147.367188 106.640625 145.714844 106.878906 144.769531 C 107.113281 143.707031 108.058594 142.761719 109.828125 142.171875 C 114.90625 140.519531 140.402344 142.289062 145.125 144.652344 C 146.65625 145.359375 147.367188 146.304688 147.484375 147.246094 C 147.71875 148.191406 147.128906 149.371094 146.539062 149.964844 C 145.949219 150.554688 145.476562 150.671875 144.414062 150.789062 C 141.9375 150.90625 135.796875 148.429688 130.839844 147.71875 C 125.054688 146.777344 114.785156 147.71875 111.71875 145.832031 C 110.300781 145.003906 109.476562 143.351562 109.59375 142.410156 C 109.828125 141.347656 111.246094 140.164062 112.78125 139.8125 C 115.730469 139.101562 121.042969 141.9375 126.945312 142.878906 C 136.035156 144.179688 158.34375 143.941406 162.710938 146.066406 C 163.890625 146.539062 164.363281 147.128906 164.601562 147.957031 C 164.71875 148.78125 164.128906 150.433594 163.539062 151.023438 C 163.066406 151.496094 162.710938 151.617188 161.648438 151.617188 C 156.335938 151.96875 119.390625 145.359375 114.316406 143.589844 C 113.253906 143.234375 112.898438 143.117188 112.542969 142.644531 C 112.070312 142.054688 111.71875 140.753906 111.953125 140.046875 C 112.308594 139.222656 113.253906 138.394531 115.140625 138.039062 C 121.75 136.507812 159.878906 142.878906 166.015625 144.769531 C 167.433594 145.242188 168.023438 145.476562 168.496094 146.066406 C 168.96875 146.777344 169.320312 147.957031 169.085938 148.664062 C 168.730469 149.492188 168.023438 150.316406 166.488281 150.789062 C 161.175781 152.558594 129.777344 150.554688 124.820312 148.429688 C 123.523438 147.839844 123.050781 147.246094 122.8125 146.539062 C 122.578125 145.714844 122.8125 144.414062 123.285156 143.824219 C 123.640625 143.234375 124.230469 142.878906 125.054688 142.644531 C 126.117188 142.410156 127.300781 142.878906 129.660156 143.117188 C 137.921875 144.0625 177.347656 147.957031 183.605469 150.90625 C 185.140625 151.617188 185.847656 152.207031 185.964844 153.148438 C 186.203125 153.976562 185.964844 155.511719 184.785156 156.101562 C 179.238281 159.171875 123.523438 144.769531 117.03125 141.464844 C 115.847656 140.875 115.375 140.519531 115.140625 139.8125 C 114.90625 138.984375 115.375 137.214844 116.085938 136.625 C 116.675781 136.152344 117.972656 135.917969 118.683594 136.269531 C 119.390625 136.625 120.570312 138.160156 120.453125 138.984375 C 120.335938 139.929688 119.152344 141.226562 118.210938 141.582031 C 117.5 141.699219 116.320312 141.347656 115.730469 140.753906 C 115.257812 140.285156 114.785156 139.101562 115.023438 138.277344 C 115.257812 137.449219 115.96875 136.507812 117.5 136.035156 C 124.113281 134.261719 167.195312 146.066406 177.464844 148.902344 C 181.125 149.964844 183.605469 150.082031 184.902344 151.378906 C 185.730469 152.207031 186.203125 153.621094 185.964844 154.449219 C 185.730469 155.394531 184.667969 156.21875 182.777344 156.574219 C 175.578125 158.226562 130.957031 152.324219 124.820312 148.429688 C 123.285156 147.367188 122.578125 146.066406 122.695312 145.125 C 122.8125 144.179688 123.992188 143.234375 125.765625 142.644531 C 131.546875 140.753906 165.191406 142.761719 168.496094 146.066406 C 169.441406 147.011719 169.203125 148.546875 168.730469 149.371094 C 168.378906 150.082031 167.433594 150.554688 165.898438 150.789062 C 159.640625 151.734375 126.707031 146.304688 118.328125 144.179688 C 115.257812 143.46875 112.898438 143.234375 112.191406 142.054688 C 111.601562 141.226562 112.070312 139.574219 112.660156 138.867188 C 113.132812 138.277344 113.722656 138.160156 115.140625 138.039062 C 121.042969 137.449219 157.398438 142.410156 162.710938 146.066406 C 164.128906 147.011719 164.835938 148.308594 164.601562 149.253906 C 164.480469 150.199219 163.417969 151.144531 161.648438 151.617188 C 155.511719 153.386719 124.347656 149.253906 116.320312 147.128906 C 113.132812 146.304688 110.773438 145.832031 110.066406 144.53125 C 109.476562 143.589844 109.710938 141.816406 110.183594 140.992188 C 110.65625 140.285156 111.480469 140.046875 112.78125 139.8125 C 116.910156 139.222656 133.082031 141.699219 138.984375 142.878906 C 142.054688 143.46875 144.414062 143.824219 145.832031 144.886719 C 146.777344 145.476562 147.484375 146.421875 147.484375 147.246094 C 147.601562 148.074219 147.128906 149.371094 146.539062 149.964844 C 145.949219 150.554688 145.59375 150.554688 144.414062 150.789062 C 139.929688 151.496094 114.785156 151.378906 109.710938 148.902344 C 107.824219 148.074219 106.761719 146.65625 106.761719 145.59375 C 106.761719 144.414062 108.292969 142.761719 109.828125 142.171875 C 111.835938 141.464844 115.96875 142.761719 118.917969 143.824219 C 122.105469 144.769531 127.0625 146.65625 128.125 148.308594 C 128.714844 149.253906 128.480469 150.554688 128.125 151.261719 C 127.769531 151.851562 127.300781 152.324219 126.355469 152.679688 C 124.113281 153.386719 117.738281 152.679688 113.371094 152.085938 C 108.765625 151.617188 101.683594 151.144531 99.558594 149.492188 C 98.378906 148.664062 97.90625 147.367188 98.023438 146.421875 C 98.144531 145.476562 98.734375 144.53125 100.269531 143.941406 C 106.761719 141.226562 154.332031 144.296875 161.058594 146.421875 C 162.59375 146.894531 163.066406 147.246094 163.539062 147.957031 C 163.890625 148.546875 164.128906 149.492188 163.890625 150.199219 C 163.539062 151.023438 161.765625 152.324219 160.585938 152.679688 C 159.40625 152.914062 157.515625 152.441406 156.691406 151.851562 C 155.984375 151.496094 155.511719 150.789062 155.394531 150.199219 C 155.15625 149.371094 155.394531 147.957031 155.984375 147.367188 C 156.457031 146.65625 158.578125 146.1875 158.578125 146.1875 "/></clipPath><clipPath id="29ffee0ec6"><path d="M 136.03125 87.28125 L 278 87.28125 L 278 359.742188 L 136.03125 359.742188 Z M 136.03125 87.28125 "/></clipPath><clipPath id="4d18b59bcd"><path d="M 238.964844 221.496094 C 210.046875 244.632812 203.316406 254.664062 199.304688 255.964844 C 197.652344 256.4375 196 256.082031 195.289062 255.375 C 194.699219 254.546875 194.582031 252.777344 195.410156 251.242188 C 197.296875 247.464844 208.15625 240.738281 214.175781 236.488281 C 219.253906 232.828125 225.273438 228.105469 228.695312 227.160156 C 230.347656 226.691406 232 226.453125 232.710938 227.160156 C 233.535156 227.871094 233.773438 229.523438 233.417969 231.292969 C 232.355469 234.835938 225.628906 242.035156 221.257812 246.757812 C 217.011719 251.359375 210.753906 258.207031 207.449219 259.269531 C 206.152344 259.742188 204.734375 259.386719 204.027344 258.796875 C 203.316406 258.207031 202.964844 256.90625 203.316406 255.375 C 204.027344 251.714844 212.644531 241.800781 216.066406 238.023438 C 217.953125 235.898438 219.488281 234.007812 221.023438 233.535156 C 222.085938 233.300781 223.265625 233.652344 223.976562 234.125 C 224.566406 234.480469 225.035156 235.070312 225.15625 236.015625 C 225.273438 238.847656 221.257812 246.402344 217.835938 252.070312 C 213.351562 259.269531 203.554688 272.84375 199.539062 275.324219 C 198.125 276.265625 196.941406 276.503906 196.117188 276.03125 C 195.171875 275.558594 194.109375 273.789062 194.347656 272.371094 C 194.820312 269.773438 201.664062 263.28125 204.378906 262.691406 C 206.03125 262.339844 208.039062 263.046875 208.628906 263.992188 C 209.21875 264.933594 209.101562 266.234375 208.394531 267.769531 C 206.03125 272.609375 188.445312 290.433594 183.367188 291.730469 C 181.597656 292.320312 179.828125 291.613281 179.238281 290.785156 C 178.527344 289.960938 178.292969 288.1875 179.117188 287.125 C 180.890625 284.882812 192.929688 282.878906 196.351562 283.347656 C 198.003906 283.585938 199.1875 284.058594 199.777344 285 C 200.484375 286.183594 200.71875 288.425781 199.777344 290.3125 C 197.769531 294.328125 184.902344 299.519531 180.773438 304.359375 C 177.820312 307.902344 176.996094 311.207031 175.339844 315.101562 C 173.335938 319.824219 171.800781 327.734375 170.148438 330.800781 C 169.320312 332.21875 168.847656 332.574219 167.90625 333.753906 C 166.371094 335.40625 163.890625 338.121094 161.53125 339.773438 C 159.289062 341.425781 156.691406 341.898438 154.332031 343.785156 C 151.378906 346.027344 148.191406 352.519531 145.832031 353.113281 C 144.53125 353.464844 142.878906 352.640625 142.171875 351.695312 C 141.464844 350.75 141.464844 349.097656 141.9375 347.328125 C 142.761719 343.90625 147.246094 339.300781 149.964844 333.871094 C 153.621094 326.550781 156.808594 312.976562 160.941406 306.601562 C 163.65625 302.472656 167.195312 298.457031 169.675781 297.632812 C 171.09375 297.160156 172.507812 297.515625 173.335938 298.105469 C 174.160156 298.8125 174.988281 299.875 174.988281 301.410156 C 174.75 305.421875 161.765625 322.421875 161.886719 322.539062 C 161.886719 322.65625 165.308594 318.171875 167.433594 314.511719 C 171.328125 307.785156 177.347656 292.4375 181.953125 284.175781 C 185.257812 278.15625 187.265625 275.441406 191.511719 269.183594 C 198.832031 257.96875 212.171875 237.429688 223.03125 223.265625 C 233.300781 210.046875 247.699219 196.707031 254.902344 186.4375 C 259.503906 179.945312 265.40625 170.03125 264.699219 169.320312 C 264.34375 169.085938 263.28125 170.738281 261.628906 171.328125 C 257.851562 172.507812 246.992188 173.335938 240.027344 172.507812 C 233.0625 171.683594 222.792969 168.378906 219.726562 166.371094 C 218.542969 165.542969 218.074219 165.070312 217.835938 164.128906 C 217.480469 163.066406 217.835938 161.292969 218.425781 160.351562 C 218.898438 159.523438 219.726562 159.171875 220.789062 158.816406 C 222.441406 158.109375 224.328125 157.988281 227.632812 157.871094 C 235.425781 157.515625 259.742188 158.933594 267.648438 159.640625 C 271.074219 159.878906 273.199219 159.640625 274.851562 160.585938 C 276.148438 161.414062 277.445312 162.828125 277.566406 164.128906 C 277.683594 165.425781 276.855469 167.195312 275.675781 168.023438 C 273.90625 169.203125 270.71875 168.96875 266.941406 168.613281 C 258.914062 167.667969 236.605469 159.996094 230.820312 157.988281 C 229.050781 157.28125 228.222656 157.28125 227.28125 156.457031 C 226.335938 155.746094 225.628906 154.921875 225.15625 153.621094 C 224.445312 151.734375 224.328125 148.902344 224.683594 145.714844 C 225.390625 140.519531 227.871094 133.4375 230.820312 125.882812 C 235.1875 115.140625 244.632812 91.53125 249.707031 88.226562 C 251.476562 87.046875 253.367188 87.164062 254.429688 87.875 C 255.609375 88.582031 256.4375 90.117188 256.4375 92.242188 C 256.554688 97.671875 246.757812 112.898438 243.921875 122.222656 C 241.445312 129.894531 241.679688 136.742188 239.320312 143.589844 C 236.960938 150.433594 233.0625 160.46875 229.875 163.183594 C 228.460938 164.480469 226.691406 164.835938 225.507812 164.480469 C 224.445312 164.128906 223.382812 162.828125 223.148438 161.765625 C 222.914062 160.824219 223.382812 159.171875 224.09375 158.34375 C 224.800781 157.636719 226.335938 157.046875 227.398438 157.164062 C 228.460938 157.398438 229.875 158.34375 230.230469 159.289062 C 230.703125 160.234375 230.703125 162.003906 230.113281 162.828125 C 229.640625 163.773438 228.105469 164.601562 227.042969 164.71875 C 226.335938 164.835938 225.390625 164.601562 224.800781 164.128906 C 223.976562 163.300781 223.148438 161.648438 223.265625 159.761719 C 223.503906 155.984375 229.050781 150.082031 231.882812 142.878906 C 236.367188 131.429688 241.800781 105.34375 245.222656 96.492188 C 246.757812 92.832031 247.464844 90.351562 249 88.9375 C 250.0625 87.875 251.476562 87.28125 252.539062 87.28125 C 253.484375 87.28125 254.664062 87.753906 255.253906 88.464844 C 255.964844 89.289062 256.554688 90.351562 256.4375 92.242188 C 255.964844 98.261719 241.800781 120.453125 237.667969 130.605469 C 235.1875 136.976562 232.828125 143 232.589844 146.65625 C 232.472656 148.429688 232.121094 149.492188 233.300781 150.789062 C 236.488281 154.449219 258.679688 157.871094 264.816406 160.113281 C 267.53125 161.175781 269.300781 161.292969 270.363281 162.710938 C 271.546875 164.011719 272.726562 166.726562 271.898438 167.789062 C 269.773438 170.382812 251.359375 165.78125 242.269531 165.664062 C 234.480469 165.542969 224.328125 168.023438 220.667969 166.726562 C 219.136719 166.132812 218.191406 165.191406 217.835938 164.128906 C 217.480469 163.066406 217.71875 161.292969 218.425781 160.351562 C 219.015625 159.40625 220.199219 158.816406 221.730469 158.699219 C 225.390625 158.34375 233.0625 163.65625 239.792969 164.480469 C 247.820312 165.542969 261.511719 162.59375 266.585938 162.828125 C 268.710938 162.949219 269.773438 162.949219 270.953125 163.65625 C 272.015625 164.246094 272.960938 165.542969 273.433594 166.605469 C 273.789062 167.789062 273.789062 168.730469 273.316406 170.382812 C 272.371094 174.042969 268.59375 181.007812 263.871094 187.734375 C 256.316406 198.597656 239.4375 213.941406 228.8125 227.632812 C 218.664062 240.855469 208.15625 257.734375 201.191406 268.476562 C 196.707031 275.203125 194.464844 278.507812 190.570312 285.355469 C 185.140625 294.917969 177.464844 313.566406 172.390625 320.769531 C 169.910156 324.425781 167.789062 326.671875 165.664062 328.324219 C 164.128906 329.386719 162.710938 330.09375 161.292969 330.210938 C 159.996094 330.210938 158.578125 329.976562 157.519531 329.148438 C 156.101562 327.734375 154.210938 324.664062 154.449219 321.59375 C 154.921875 315.929688 165.070312 301.527344 168.140625 298.695312 C 169.085938 297.75 169.792969 297.515625 170.621094 297.394531 C 171.566406 297.277344 172.625 297.515625 173.335938 298.105469 C 174.160156 298.929688 175.105469 300.703125 174.871094 302.355469 C 174.28125 305.1875 168.496094 308.375 165.898438 312.742188 C 162.59375 318.289062 160.941406 327.023438 157.871094 333.871094 C 154.921875 340.597656 150.789062 349.214844 147.839844 353.464844 C 146.1875 355.828125 145.125 357.597656 143.351562 358.542969 C 141.9375 359.25 139.929688 359.722656 138.632812 359.132812 C 137.449219 358.542969 136.152344 356.417969 136.035156 354.882812 C 136.035156 352.875 137.921875 350.277344 139.574219 347.800781 C 141.816406 344.730469 145.003906 341.1875 148.308594 338.238281 C 152.207031 334.816406 158.34375 332.925781 161.886719 328.558594 C 165.542969 323.835938 166.605469 315.574219 169.320312 310.261719 C 171.566406 306.011719 173.570312 302.355469 176.523438 299.046875 C 179.710938 295.742188 184.550781 292.554688 187.855469 290.550781 C 190.332031 289.015625 192.929688 286.890625 194.582031 287.246094 C 195.644531 287.480469 197.296875 289.371094 196.941406 290.078125 C 196.351562 291.613281 183.722656 292.675781 181.125 292.085938 C 180.0625 291.847656 179.589844 291.375 179.238281 290.785156 C 178.765625 290.078125 178.292969 289.132812 178.765625 287.835938 C 180.300781 283.347656 198.476562 265.054688 203.671875 263.046875 C 205.558594 262.339844 207.332031 262.574219 208.15625 263.398438 C 208.867188 264.226562 208.984375 266.234375 208.394531 267.769531 C 207.210938 270.363281 200.71875 275.441406 198.242188 276.148438 C 197.179688 276.503906 196.117188 276.265625 195.410156 275.675781 C 194.699219 275.085938 194.109375 273.789062 194.347656 272.371094 C 195.054688 268.832031 204.027344 261.984375 208.15625 255.964844 C 212.523438 249.351562 216.183594 236.488281 219.726562 234.363281 C 221.140625 233.417969 223.148438 233.417969 223.976562 234.125 C 224.800781 234.714844 225.15625 236.488281 224.683594 238.257812 C 223.503906 242.859375 210.636719 258.5625 206.859375 259.503906 C 205.441406 259.859375 204.144531 259.03125 203.554688 258.207031 C 203.082031 257.5 202.964844 256.082031 203.671875 254.785156 C 204.96875 251.714844 212.644531 247.230469 216.773438 242.742188 C 221.140625 238.023438 226.097656 228.222656 229.285156 226.925781 C 230.585938 226.335938 232 226.570312 232.710938 227.160156 C 233.535156 227.871094 234.007812 229.875 233.417969 231.292969 C 232 234.246094 223.03125 237.3125 217.71875 241.089844 C 211.699219 245.339844 203.433594 254.785156 199.304688 255.964844 C 197.652344 256.4375 196 256.082031 195.289062 255.375 C 194.699219 254.546875 194.699219 252.894531 195.410156 251.242188 C 197.179688 247.347656 206.386719 240.265625 212.644531 234.835938 C 219.488281 228.695312 230.46875 217.835938 235.304688 216.300781 C 237.078125 215.828125 238.613281 216.183594 239.4375 216.773438 C 240.027344 217.246094 240.382812 218.191406 240.265625 218.898438 C 240.265625 219.726562 238.964844 221.496094 238.964844 221.496094 "/></clipPath><clipPath id="5a73503b53"><path d="M 156.386719 12.90625 L 255.320312 12.90625 L 255.320312 108.953125 L 156.386719 108.953125 Z M 156.386719 12.90625 "/></clipPath><clipPath id="935a6f6b5f"><path d="M 159.40625 12.917969 C 190.6875 13.152344 218.664062 15.515625 225.863281 16.222656 C 228.105469 16.457031 228.695312 16.339844 230.113281 16.8125 C 231.765625 17.402344 234.246094 18.347656 234.953125 19.765625 C 235.660156 21.179688 235.070312 22.832031 234.246094 25.074219 C 232.710938 29.5625 225.035156 38.53125 221.96875 44.433594 C 219.488281 48.917969 218.191406 51.988281 216.421875 57.183594 C 213.824219 64.738281 212.171875 82.679688 208.746094 85.984375 C 207.332031 87.164062 205.324219 87.28125 204.144531 86.8125 C 202.964844 86.222656 201.902344 84.6875 201.78125 82.796875 C 201.546875 78.667969 208.746094 69.222656 211.460938 61.550781 C 214.414062 53.050781 214.765625 36.996094 218.074219 33.8125 C 219.371094 32.628906 221.378906 32.628906 222.441406 32.984375 C 223.382812 33.21875 223.976562 34.164062 224.328125 34.871094 C 224.683594 35.699219 224.683594 36.878906 224.445312 37.589844 C 224.328125 38.296875 223.621094 39.242188 223.503906 39.121094 C 223.148438 39.121094 223.621094 34.164062 223.738281 34.164062 C 223.738281 34.164062 224.328125 36.644531 223.976562 39.121094 C 222.441406 47.386719 203.082031 92.121094 201.78125 91.886719 C 201.429688 91.769531 201.3125 89.171875 202.019531 88.109375 C 203.082031 86.457031 206.152344 85.277344 209.101562 84.566406 C 213.585938 83.507812 221.378906 84.921875 226.925781 84.566406 C 231.648438 84.214844 235.777344 82.5625 240.027344 82.5625 C 244.160156 82.5625 249.707031 82.914062 251.949219 84.332031 C 253.25 85.160156 253.839844 86.222656 254.3125 87.519531 C 254.902344 88.816406 255.253906 90.589844 255.019531 92.359375 C 254.785156 94.601562 253.367188 97.789062 251.949219 99.796875 C 250.652344 101.449219 249.351562 102.628906 247.347656 103.925781 C 244.632812 105.699219 239.554688 108.882812 236.839844 108.765625 C 235.1875 108.648438 233.417969 107.230469 232.828125 106.050781 C 232.355469 105.105469 232.710938 103.21875 233.417969 102.390625 C 234.007812 101.449219 235.660156 100.738281 236.722656 100.738281 C 237.550781 100.738281 238.492188 101.09375 239.082031 101.683594 C 239.910156 102.390625 240.738281 104.046875 240.617188 105.105469 C 240.5 106.167969 239.554688 107.824219 238.492188 108.175781 C 237.429688 108.765625 234.597656 108.414062 233.773438 107.585938 C 232.828125 106.640625 232.472656 104.164062 233.183594 102.746094 C 234.246094 100.621094 239.792969 99.558594 242.507812 97.554688 C 244.867188 95.78125 248.882812 92.832031 248.527344 91.652344 C 248.171875 90.46875 244.394531 90.589844 241.207031 90.351562 C 235.1875 90.117188 220.199219 92.949219 215.238281 92.359375 C 213.234375 92.121094 212.878906 91.058594 211.109375 91.058594 C 208.273438 91.179688 202.609375 96.019531 199.894531 95.898438 C 198.242188 95.78125 196.824219 94.957031 196.117188 93.894531 C 195.410156 92.949219 195.171875 91.886719 195.410156 89.761719 C 196.234375 82.679688 210.164062 49.863281 214.414062 42.898438 C 215.828125 40.539062 217.246094 40.304688 217.953125 38.648438 C 218.78125 36.996094 217.953125 33.929688 218.898438 33.101562 C 219.84375 32.394531 222.320312 32.75 223.265625 33.457031 C 224.09375 34.046875 224.445312 35.109375 224.683594 36.761719 C 225.035156 40.894531 221.257812 53.050781 219.253906 60.132812 C 217.601562 66.152344 215.710938 72.054688 213.707031 76.777344 C 212.171875 80.320312 210.519531 84.332031 208.746094 85.984375 C 207.566406 86.8125 206.152344 87.28125 205.089844 87.046875 C 203.90625 86.8125 202.375 85.394531 201.78125 83.859375 C 201.074219 81.617188 202.375 78.195312 203.433594 74.296875 C 205.207031 67.214844 209.21875 54.46875 213.351562 45.496094 C 217.480469 36.644531 225.980469 20.472656 228.34375 20.589844 C 229.167969 20.707031 230.46875 23.304688 229.875 24.132812 C 227.632812 27.082031 191.160156 19.410156 178.175781 18.9375 C 170.382812 18.582031 162.828125 20.824219 159.40625 19.410156 C 157.753906 18.703125 156.574219 17.285156 156.574219 16.222656 C 156.574219 15.160156 159.40625 12.917969 159.40625 12.917969 "/></clipPath><clipPath id="8f16b6f082"><path d="M 229.410156 205 L 251.796875 205 L 251.796875 223.851562 L 229.410156 223.851562 Z M 229.410156 205 "/></clipPath><clipPath id="ae516c6fed"><path d="M 242.269531 211.699219 C 233.535156 223.976562 231.765625 223.503906 230.820312 223.03125 C 230.113281 222.558594 229.640625 221.613281 229.523438 220.789062 C 229.40625 219.960938 229.40625 219.253906 229.996094 218.308594 C 231.765625 215.359375 242.742188 206.269531 246.519531 205.324219 C 248.171875 204.96875 249.707031 205.324219 250.535156 206.152344 C 251.359375 206.859375 251.714844 208.746094 251.242188 210.164062 C 250.769531 211.933594 248.410156 214.296875 246.285156 215.59375 C 243.804688 217.011719 238.964844 218.664062 236.960938 217.953125 C 235.660156 217.484375 234.597656 215.59375 234.714844 214.414062 C 234.714844 213.234375 236.488281 211.226562 237.550781 210.871094 C 238.613281 210.636719 240.144531 211.109375 240.855469 211.816406 C 241.679688 212.523438 242.152344 214.058594 242.035156 215.121094 C 241.800781 216.066406 240.855469 217.484375 239.910156 217.835938 C 238.964844 218.308594 237.3125 218.191406 236.488281 217.71875 C 235.542969 217.128906 234.714844 215.710938 234.714844 214.648438 C 234.597656 213.707031 235.304688 212.171875 236.132812 211.582031 C 237.195312 210.988281 239.675781 210.988281 240.617188 211.582031 C 241.445312 212.171875 242.152344 213.707031 242.035156 214.765625 C 242.035156 215.710938 241.207031 217.011719 240.382812 217.601562 C 239.554688 218.191406 237.902344 218.308594 236.960938 217.953125 C 236.015625 217.601562 234.953125 216.300781 234.714844 215.359375 C 234.597656 214.296875 234.953125 212.644531 235.660156 212.050781 C 236.367188 211.34375 238.023438 211.933594 239.320312 211.226562 C 241.679688 210.28125 245.222656 205.558594 247.347656 205.089844 C 248.527344 204.851562 249.824219 205.441406 250.535156 206.152344 C 251.242188 206.859375 251.949219 208.039062 251.597656 209.335938 C 250.535156 212.523438 238.140625 221.730469 234.953125 223.265625 C 233.773438 223.738281 233.183594 223.855469 232.472656 223.738281 C 231.648438 223.503906 230.703125 223.148438 230.230469 222.320312 C 229.640625 221.496094 229.640625 219.960938 229.996094 218.308594 C 230.820312 215.359375 234.714844 208.394531 237.195312 207.09375 C 238.492188 206.269531 240.265625 206.621094 241.207031 207.09375 C 241.917969 207.449219 242.507812 208.394531 242.625 209.21875 C 242.859375 209.929688 242.269531 211.699219 242.269531 211.699219 "/></clipPath></defs><g id="08a74aa61d"><path style=" stroke:none;fill-rule:nonzero;fill:#333333;fill-opacity:1;" d="M 283.203125 150.867188 C 279.492188 148.402344 275.285156 148.039062 271.023438 147.984375 C 263.675781 147.90625 256.324219 147.960938 248.585938 147.960938 C 250.972656 142.21875 253.183594 136.84375 255.519531 131.46875 C 260.480469 119.960938 265.519531 108.535156 270.425781 97.03125 C 275.804688 84.460938 268.011719 71.578125 255.777344 71.265625 C 248.089844 71.058594 240.429688 71.214844 232.769531 71.03125 C 229.417969 70.953125 229.367188 70.980469 230.664062 68.019531 C 236.273438 55.214844 241.441406 42.179688 247.285156 29.453125 C 248.898438 25.917969 250.6875 22.308594 250.792969 18.257812 C 251.027344 9.246094 245.3125 0.207031 231.832031 0.128906 C 207.574219 0 183.320312 0.0507812 159.0625 0.105469 C 150.984375 0.128906 144.386719 3.167969 140.984375 10.882812 C 134.285156 26.101562 127.816406 41.425781 121.296875 56.722656 C 113.742188 74.433594 106.261719 92.171875 98.703125 109.886719 C 94.679688 119.363281 90.523438 128.765625 86.523438 138.246094 C 81.25 150.765625 89.613281 163.414062 101.457031 163.644531 C 109.222656 163.800781 117.011719 163.699219 124.777344 163.800781 C 126.414062 163.828125 127.324219 163.878906 126.335938 165.933594 C 124.855469 168.996094 123.660156 172.242188 122.3125 175.386719 C 116.675781 188.554688 110.859375 201.644531 105.457031 214.886719 C 100.496094 227.121094 109.066406 240.105469 121.871094 239.820312 C 132.285156 239.585938 142.699219 239.792969 153.085938 239.664062 C 156.90625 239.613281 156.878906 239.664062 155.816406 243.144531 C 150.722656 259.949219 145.6875 276.753906 140.570312 293.53125 C 134.984375 311.867188 129.273438 330.148438 123.738281 348.484375 C 122.15625 353.679688 122.546875 358.847656 125.273438 363.703125 C 131.402344 374.585938 148.800781 374.949219 156.410156 363.417969 C 168.644531 344.902344 181.578125 326.851562 194.332031 308.671875 C 208.976562 287.765625 223.757812 266.960938 238.480469 246.105469 C 254.894531 222.863281 271.257812 199.617188 287.722656 176.425781 C 293.722656 168.007812 291.777344 156.582031 283.203125 150.867188 Z M 264.972656 179.023438 C 253.882812 194.785156 242.792969 210.550781 231.675781 226.289062 C 220.585938 242.054688 209.445312 257.765625 198.355469 273.53125 C 184.488281 293.246094 170.851562 313.136719 156.75 332.667969 C 151.761719 339.550781 147.53125 346.925781 142.308594 353.628906 C 141.816406 354.277344 141.609375 355.679688 140.414062 355.054688 C 139.324219 354.484375 140.128906 353.421875 140.386719 352.613281 C 147.503906 329.265625 154.59375 305.945312 161.710938 282.597656 C 165.320312 270.726562 169.007812 258.882812 172.617188 247.015625 C 174.800781 239.847656 176.746094 232.625 179.007812 225.511719 C 179.785156 223.070312 179.085938 222.707031 176.800781 222.707031 C 159.320312 222.757812 141.816406 222.707031 124.335938 222.707031 C 120.703125 222.707031 120.726562 222.652344 122.078125 219.484375 C 131.167969 198.164062 140.230469 176.8125 149.320312 155.464844 C 150.152344 153.515625 150.984375 151.570312 151.917969 149.671875 C 152.984375 147.519531 152.28125 146.816406 149.972656 146.84375 C 139.554688 146.921875 129.140625 146.894531 118.726562 146.894531 C 113.976562 146.894531 109.222656 146.816406 104.46875 146.867188 C 102.496094 146.867188 101.613281 146.636719 102.625 144.324219 C 108.054688 131.753906 113.351562 119.105469 118.703125 106.507812 C 124.804688 92.121094 130.933594 77.734375 137.0625 63.34375 C 143.375 48.488281 149.761719 33.660156 156.046875 18.804688 C 156.777344 17.089844 157.96875 17.0625 159.449219 17.0625 C 181.578125 17.089844 203.730469 17.113281 225.859375 17.113281 C 233.9375 17.113281 233.832031 17.0625 230.636719 24.492188 C 224.144531 39.582031 217.757812 54.746094 211.316406 69.863281 C 209.210938 74.773438 207.109375 79.679688 205.003906 84.589844 C 203.601562 87.863281 203.628906 87.941406 207.132812 87.941406 C 221.183594 87.941406 235.234375 87.914062 249.285156 87.914062 C 250.375 87.914062 251.492188 87.964844 252.609375 87.914062 C 254.792969 87.835938 255.546875 88.433594 254.53125 90.746094 C 249.285156 102.742188 244.117188 114.792969 238.976562 126.84375 C 234.117188 138.246094 229.289062 149.671875 224.429688 161.101562 C 224.25 161.570312 224.09375 162.089844 223.78125 162.453125 C 221.757812 164.738281 223.601562 164.945312 225.238281 164.972656 C 228.871094 165.074219 232.507812 164.917969 236.144531 165.023438 C 243.390625 165.230469 250.609375 164.894531 257.882812 165.414062 C 261.984375 165.699219 266.296875 164.972656 270.503906 164.996094 C 271.671875 164.996094 272.867188 164.894531 274.269531 165.566406 C 271.101562 170.113281 268.0625 174.582031 264.972656 179.023438 Z M 264.972656 179.023438 "/><path style=" stroke:none;fill-rule:nonzero;fill:#333333;fill-opacity:1;" d="M 274.089844 165.59375 C 270.945312 170.140625 267.882812 174.605469 264.765625 179.023438 C 253.675781 194.785156 242.585938 210.523438 231.46875 226.289062 C 220.355469 242.027344 209.210938 257.765625 198.148438 273.53125 C 184.28125 293.246094 170.644531 313.136719 156.542969 332.667969 C 151.554688 339.550781 147.320312 346.925781 142.101562 353.628906 C 141.609375 354.25 141.375 355.679688 140.207031 355.054688 C 139.113281 354.484375 139.921875 353.445312 140.179688 352.613281 C 147.269531 329.265625 154.386719 305.917969 161.503906 282.597656 C 165.113281 270.726562 168.828125 258.882812 172.410156 247.015625 C 174.59375 239.871094 176.539062 232.652344 178.800781 225.511719 C 179.578125 223.042969 178.878906 222.679688 176.59375 222.707031 C 159.113281 222.757812 141.609375 222.730469 124.128906 222.707031 C 120.492188 222.707031 120.519531 222.652344 121.871094 219.484375 C 130.960938 198.164062 140.050781 176.789062 149.113281 155.464844 C 149.945312 153.515625 150.777344 151.570312 151.710938 149.671875 C 152.75 147.492188 152.046875 146.816406 149.761719 146.84375 C 139.347656 146.921875 128.933594 146.894531 118.519531 146.894531 C 113.765625 146.894531 109.015625 146.816406 104.261719 146.867188 C 102.289062 146.894531 101.429688 146.660156 102.417969 144.324219 C 107.84375 131.753906 113.144531 119.132812 118.492188 106.507812 C 124.597656 92.121094 130.726562 77.734375 136.855469 63.34375 C 143.191406 48.488281 149.554688 33.683594 155.839844 18.804688 C 156.566406 17.089844 157.761719 17.0625 159.242188 17.0625 C 181.371094 17.089844 203.523438 17.113281 225.652344 17.113281 C 233.753906 17.113281 233.625 17.0625 230.429688 24.492188 C 223.910156 39.582031 217.550781 54.722656 211.109375 69.863281 C 209.003906 74.773438 206.902344 79.679688 204.796875 84.589844 C 203.394531 87.863281 203.445312 87.941406 206.925781 87.941406 C 220.976562 87.941406 235.027344 87.914062 249.078125 87.914062 C 250.195312 87.914062 251.3125 87.964844 252.402344 87.914062 C 254.585938 87.835938 255.335938 88.433594 254.324219 90.746094 C 249.078125 102.742188 243.910156 114.792969 238.769531 126.84375 C 233.886719 138.246094 229.054688 149.671875 224.222656 161.101562 C 224.015625 161.570312 223.886719 162.089844 223.574219 162.453125 C 221.546875 164.761719 223.390625 164.945312 225.027344 164.972656 C 228.664062 165.050781 232.300781 164.917969 235.9375 165.023438 C 243.183594 165.230469 250.429688 164.894531 257.675781 165.414062 C 261.777344 165.699219 266.0625 164.996094 270.296875 164.996094 C 271.492188 165.023438 272.6875 164.894531 274.089844 165.59375 Z M 274.089844 165.59375 "/><g clip-rule="nonzero" clip-path="url(#1232254262)"><g clip-rule="nonzero" clip-path="url(#a9b3e7e0b4)"><path style=" stroke:none;fill-rule:nonzero;fill:#333333;fill-opacity:1;" d="M 108.292969 200.484375 L 222.167969 200.484375 L 222.167969 237.667969 L 108.292969 237.667969 Z M 108.292969 200.484375 "/></g></g><g clip-rule="nonzero" clip-path="url(#c80868ec9d)"><g clip-rule="nonzero" clip-path="url(#f5ff7487d8)"><path style=" stroke:none;fill-rule:nonzero;fill:#333333;fill-opacity:1;" d="M 93.304688 131.3125 L 190.863281 131.3125 L 190.863281 161.292969 L 93.304688 161.292969 Z M 93.304688 131.3125 "/></g></g><g clip-rule="nonzero" clip-path="url(#29ffee0ec6)"><g clip-rule="nonzero" clip-path="url(#4d18b59bcd)"><path style=" stroke:none;fill-rule:nonzero;fill:#333333;fill-opacity:1;" d="M 131.3125 82.5625 L 282.285156 82.5625 L 282.285156 363.871094 L 131.3125 363.871094 Z M 131.3125 82.5625 "/></g></g><g clip-rule="nonzero" clip-path="url(#5a73503b53)"><g clip-rule="nonzero" clip-path="url(#935a6f6b5f)"><path style=" stroke:none;fill-rule:nonzero;fill:#333333;fill-opacity:1;" d="M 151.851562 7.960938 L 259.855469 7.960938 L 259.855469 113.488281 L 151.851562 113.488281 Z M 151.851562 7.960938 "/></g></g><g clip-rule="nonzero" clip-path="url(#8f16b6f082)"><g clip-rule="nonzero" clip-path="url(#ae516c6fed)"><path style=" stroke:none;fill-rule:nonzero;fill:#333333;fill-opacity:1;" d="M 224.800781 200.367188 L 256.296875 200.367188 L 256.296875 228.460938 L 224.800781 228.460938 Z M 224.800781 200.367188 "/></g></g></g></svg>