<svg xmlns="http://www.w3.org/2000/svg" xmlns:xlink="http://www.w3.org/1999/xlink" width="500" zoomAndPan="magnify" viewBox="0 0 375 374.999991" height="500" preserveAspectRatio="xMidYMid meet" version="1.0"><defs><clipPath id="a9f36c7c0c"><path d="M 120 65.175781 L 256 65.175781 L 256 308 L 120 308 Z M 120 65.175781 " clip-rule="nonzero"/></clipPath><clipPath id="7042dfc75c"><path d="M 155.222656 71 L 244.824219 71 L 244.824219 298.828125 L 155.222656 298.828125 Z M 155.222656 71 " clip-rule="nonzero"/></clipPath><clipPath id="b285109440"><path d="M 167.023438 75.898438 C 201.375 78.449219 201.675781 78.824219 201.898438 79.273438 C 202.050781 79.726562 202.125 80.25 201.898438 80.625 C 201.675781 81.148438 201.074219 81.601562 200.101562 81.898438 C 197.25 82.726562 187.351562 81.226562 181.273438 81.375 C 175.648438 81.449219 167.476562 82.800781 164.925781 82.351562 C 164.023438 82.125 163.648438 81.976562 163.273438 81.601562 C 162.976562 81.148438 162.75 80.398438 162.976562 79.800781 C 163.425781 78.898438 165.148438 78.226562 167.101562 77.398438 C 171.226562 75.601562 184.050781 71.550781 187.199219 71.398438 C 188.101562 71.398438 188.550781 71.476562 189 71.773438 C 189.449219 72.148438 189.824219 72.976562 189.75 73.5 C 189.601562 74.175781 189.226562 74.773438 188.25 75.300781 C 185.324219 76.800781 169.351562 78.074219 166.125 76.800781 C 165 76.351562 164.25 75.449219 164.25 74.773438 C 164.25 74.101562 164.773438 73.199219 166.050781 72.675781 C 171.148438 70.351562 209.550781 70.800781 214.199219 73.425781 C 215.25 74.101562 215.625 75.074219 215.550781 75.75 C 215.476562 76.351562 214.875 76.875 213.898438 77.324219 C 210.976562 78.601562 196.425781 79.875 193.425781 78.601562 C 192.375 78.148438 191.699219 77.25 191.699219 76.574219 C 191.699219 75.898438 192.523438 75.074219 193.5 74.625 C 195.601562 73.648438 200.773438 74.175781 204.898438 74.25 C 209.625 74.25 217.875 74.324219 220.273438 75 C 221.175781 75.300781 221.625 75.523438 221.851562 75.976562 C 222.148438 76.425781 222.300781 77.324219 222 77.773438 C 221.773438 78.375 220.425781 78.375 220.125 78.976562 C 219.75 79.648438 220.273438 80.476562 219.976562 81.601562 C 219.523438 83.699219 217.125 87.074219 215.851562 90.601562 C 214.199219 95.101562 213.148438 101.773438 211.273438 106.574219 C 209.550781 110.851562 206.851562 116.398438 205.351562 118.125 C 204.824219 118.726562 204.375 118.949219 203.851562 119.023438 C 203.324219 119.175781 202.574219 119.101562 202.125 118.800781 C 201.523438 118.351562 200.925781 117.449219 200.851562 116.25 C 200.699219 113.476562 204.898438 106.425781 206.023438 102.226562 C 206.851562 98.851562 206.25 93.601562 207.523438 93 C 208.425781 92.550781 211.050781 93.824219 211.351562 95.175781 C 212.101562 98.101562 202.574219 107.925781 199.875 113.175781 C 198.074219 116.851562 197.476562 121.574219 196.125 123.074219 C 195.449219 123.824219 194.625 124.199219 194.023438 124.050781 C 193.425781 123.976562 192.449219 123.300781 192.375 122.550781 C 192.226562 120.601562 197.550781 115.574219 199.425781 112.199219 C 201 109.199219 201.824219 104.550781 203.101562 103.273438 C 203.699219 102.675781 204.300781 102.375 204.824219 102.449219 C 205.425781 102.449219 206.175781 102.976562 206.550781 103.425781 C 206.773438 103.800781 206.851562 104.101562 206.773438 104.851562 C 206.699219 107.25 204.300781 118.273438 202.351562 120.449219 C 201.523438 121.351562 200.398438 121.800781 199.726562 121.574219 C 199.050781 121.351562 198.523438 120.148438 198.300781 119.101562 C 197.925781 117.226562 197.925781 112.648438 199.125 111.449219 C 200.023438 110.550781 202.726562 110.175781 203.25 110.851562 C 204.148438 111.976562 200.925781 119.398438 199.648438 120.824219 C 199.199219 121.425781 198.75 121.574219 198.226562 121.648438 C 197.625 121.648438 196.574219 121.425781 196.199219 120.898438 C 195.75 120.300781 195.601562 118.800781 195.898438 118.125 C 196.273438 117.375 197.324219 116.550781 198.074219 116.550781 C 198.75 116.476562 199.648438 116.925781 200.023438 117.449219 C 200.398438 117.976562 199.726562 119.101562 200.324219 119.625 C 202.125 121.125 215.699219 118.351562 218.25 118.949219 C 219 119.175781 219.375 119.324219 219.675781 119.699219 C 219.976562 120.226562 220.273438 121.199219 220.125 121.800781 C 219.976562 122.398438 219.300781 123 218.699219 123.300781 C 217.949219 123.675781 217.125 123.675781 215.773438 123.75 C 212.550781 123.976562 201.074219 125.101562 199.125 123.601562 C 198.375 123 198.300781 121.800781 198.449219 121.199219 C 198.601562 120.601562 199.125 120.074219 199.949219 119.773438 C 202.199219 118.949219 209.699219 120.75 213.976562 120.675781 C 217.648438 120.601562 220.949219 119.625 224.023438 119.773438 C 226.800781 119.851562 230.550781 120.074219 231.75 121.199219 C 232.5 121.800781 232.5 122.773438 232.574219 123.824219 C 232.648438 125.175781 232.125 126.601562 231.601562 128.625 C 230.625 132.449219 229.125 139.726562 226.875 144.601562 C 224.773438 149.324219 220.726562 152.925781 218.625 157.425781 C 216.601562 161.851562 213.449219 170.550781 214.351562 171.375 C 214.726562 171.75 215.476562 170.625 216.523438 170.550781 C 218.773438 170.324219 223.574219 172.199219 227.398438 172.425781 C 231.523438 172.574219 237.898438 171.226562 240.449219 171.375 C 241.5 171.523438 242.023438 171.523438 242.625 171.898438 C 243.300781 172.351562 244.199219 173.023438 244.425781 173.773438 C 244.648438 174.523438 244.5 175.351562 244.050781 176.398438 C 243.300781 178.425781 240.523438 180.898438 238.574219 184.199219 C 235.726562 189 233.699219 196.574219 229.425781 202.949219 C 223.949219 211.050781 213.75 219.375 207 227.925781 C 200.625 236.023438 195.375 246.300781 189.898438 252.824219 C 185.925781 257.550781 181.050781 261 178.273438 264.148438 C 176.550781 266.101562 175.425781 267.300781 174.449219 269.324219 C 173.398438 271.425781 173.476562 273.75 172.351562 276.675781 C 170.625 281.101562 166.800781 289.800781 164.25 293.023438 C 162.898438 294.675781 161.101562 296.324219 160.351562 296.175781 C 159.75 296.023438 159.523438 294.675781 159.375 293.851562 C 159.226562 292.875 159.148438 292.125 159.523438 290.625 C 160.800781 286.351562 168.75 273.226562 172.875 267.300781 C 175.574219 263.324219 177.226562 262.351562 180.601562 257.925781 C 187.875 248.101562 206.101562 219.375 213.601562 209.699219 C 217.050781 205.199219 219.148438 203.476562 221.625 200.25 C 224.175781 197.023438 226.5 191.324219 228.601562 190.199219 C 229.726562 189.601562 231 189.601562 231.675781 190.125 C 232.351562 190.574219 232.726562 192.300781 232.574219 193.050781 C 232.5 193.574219 232.050781 194.023438 231.601562 194.324219 C 231 194.625 229.875 194.773438 229.199219 194.476562 C 228.601562 194.175781 227.925781 193.273438 227.699219 192.601562 C 227.550781 192.074219 227.699219 191.476562 227.925781 191.023438 C 228.300781 190.5 229.199219 189.824219 229.875 189.675781 C 230.398438 189.523438 231 189.675781 231.449219 189.976562 C 231.898438 190.199219 232.351562 190.648438 232.5 191.175781 C 232.726562 191.773438 232.726562 192.523438 232.351562 193.5 C 231.523438 195.75 227.851562 200.324219 225.226562 203.398438 C 222.675781 206.476562 219.675781 208.648438 216.824219 212.023438 C 213.375 216.226562 210.148438 221.023438 206.324219 226.800781 C 201.226562 234.523438 194.699219 246.75 189.226562 254.550781 C 184.949219 260.699219 180.75 264.375 176.851562 270.300781 C 172.273438 277.125 167.175781 288.75 163.800781 293.476562 C 162.074219 295.800781 160.875 297.75 159.449219 298.273438 C 158.476562 298.726562 157.125 298.5 156.449219 297.976562 C 155.773438 297.523438 155.25 296.550781 155.25 295.648438 C 155.25 294.449219 156.601562 292.351562 157.5 291.523438 C 158.175781 290.925781 159 291.375 159.824219 290.625 C 162 288.601562 165.976562 279.226562 167.699219 274.875 C 168.824219 272.023438 168.601562 269.925781 169.875 267.523438 C 171.300781 264.75 173.625 262.351562 176.101562 259.425781 C 179.25 255.824219 183.449219 252.601562 187.273438 247.875 C 192.375 241.574219 197.25 232.351562 203.25 224.625 C 209.925781 216.074219 220.574219 207.148438 225.898438 198.976562 C 229.949219 192.898438 231.601562 185.699219 234.226562 181.273438 C 235.949219 178.425781 238.273438 174.375 239.324219 174.449219 C 239.851562 174.523438 240.75 176.101562 240.449219 176.625 C 239.625 178.050781 228.976562 177.449219 223.875 177.074219 C 219.523438 176.773438 214.125 175.875 211.648438 174.898438 C 210.523438 174.375 209.773438 174 209.324219 173.175781 C 208.875 172.425781 209.023438 171.449219 209.175781 170.101562 C 209.476562 167.398438 211.425781 161.324219 212.851562 157.800781 C 213.976562 154.949219 215.25 152.699219 216.75 150.375 C 218.25 147.976562 220.273438 146.625 221.773438 143.625 C 224.175781 138.824219 225.976562 123.675781 227.550781 123.375 C 228.148438 123.226562 229.351562 125.101562 229.199219 125.476562 C 228.898438 125.925781 226.199219 124.800781 223.949219 124.648438 C 219.601562 124.351562 209.851562 125.101562 205.425781 124.800781 C 202.875 124.574219 200.699219 124.648438 199.574219 123.898438 C 198.824219 123.375 198.300781 122.398438 198.375 121.726562 C 198.449219 121.050781 198.976562 120.226562 200.023438 119.773438 C 202.648438 118.425781 215.023438 118.648438 217.726562 118.949219 C 218.476562 119.023438 218.851562 119.101562 219.226562 119.324219 C 219.675781 119.625 220.050781 120.226562 220.125 120.675781 C 220.273438 121.199219 220.199219 121.875 219.898438 122.25 C 219.601562 122.773438 219.148438 123.148438 218.175781 123.449219 C 215.25 124.351562 202.199219 124.273438 198.675781 123.976562 C 197.398438 123.824219 196.574219 123.824219 195.976562 123.300781 C 195.375 122.773438 195.074219 121.648438 195.074219 120.75 C 195.074219 119.625 195.75 117.75 196.5 117.148438 C 197.175781 116.625 198.523438 116.550781 199.199219 116.773438 C 199.648438 116.925781 200.101562 117.449219 200.324219 117.976562 C 200.476562 118.425781 200.550781 119.101562 200.324219 119.625 C 200.175781 120.226562 199.726562 120.898438 199.273438 121.199219 C 198.824219 121.574219 198.148438 121.726562 197.625 121.648438 C 197.175781 121.574219 196.5 121.273438 196.199219 120.898438 C 195.824219 120.523438 195.601562 120.074219 195.601562 119.324219 C 195.523438 117.449219 197.550781 110.699219 199.199219 109.199219 C 200.175781 108.449219 201.898438 108.226562 202.574219 108.675781 C 203.25 109.050781 203.476562 110.324219 203.550781 111.601562 C 203.773438 113.699219 203.476562 118.949219 202.351562 120.449219 C 201.75 121.273438 200.398438 121.800781 199.726562 121.574219 C 199.050781 121.351562 198.449219 120.300781 198.300781 119.101562 C 197.925781 116.175781 201.148438 105.898438 202.875 103.648438 C 203.476562 102.824219 204.226562 102.449219 204.824219 102.449219 C 205.351562 102.375 205.875 102.675781 206.175781 103.050781 C 206.550781 103.425781 206.851562 103.949219 206.773438 104.851562 C 206.625 107.25 202.726562 114.824219 200.476562 118.199219 C 198.898438 120.601562 196.800781 123.074219 195.449219 123.75 C 194.773438 124.125 194.101562 124.125 193.574219 123.976562 C 193.050781 123.75 192.523438 123.148438 192.375 122.550781 C 192.148438 121.5 192.898438 119.925781 193.574219 118.199219 C 194.625 115.273438 196.800781 110.773438 198.976562 106.800781 C 201.601562 102.074219 205.726562 93.074219 208.425781 91.875 C 209.550781 91.351562 210.976562 91.648438 211.574219 92.324219 C 212.175781 93.074219 211.726562 94.875 211.574219 96.375 C 211.425781 98.476562 211.125 100.726562 210.375 103.5 C 209.398438 107.550781 206.851562 116.175781 205.351562 118.125 C 204.824219 118.726562 204.375 118.949219 203.851562 119.023438 C 203.324219 119.175781 202.574219 119.101562 202.125 118.800781 C 201.523438 118.351562 200.851562 117.375 200.851562 116.25 C 200.851562 113.398438 205.726562 107.101562 207.601562 102.300781 C 209.398438 97.574219 210 92.175781 211.800781 87.75 C 213.449219 83.625 215.773438 78.226562 217.648438 76.351562 C 218.550781 75.449219 219.523438 75 220.273438 75 C 220.875 75.074219 221.625 75.523438 221.851562 75.976562 C 222.148438 76.425781 222.226562 77.324219 222 77.773438 C 221.773438 78.300781 221.476562 78.675781 220.574219 78.976562 C 217.273438 80.101562 196.949219 80.25 193.425781 78.601562 C 192.300781 78.074219 191.699219 77.25 191.699219 76.574219 C 191.699219 75.898438 192.148438 75.226562 193.050781 74.699219 C 195.75 73.199219 211.425781 72.375 214.199219 73.425781 C 214.949219 73.800781 215.25 74.324219 215.476562 74.773438 C 215.625 75.226562 215.625 75.824219 215.398438 76.199219 C 214.949219 76.800781 214.050781 77.175781 212.398438 77.476562 C 206.550781 78.675781 177.75 77.550781 170.25 76.949219 C 167.550781 76.726562 165.675781 76.875 164.773438 76.125 C 164.324219 75.675781 164.175781 74.851562 164.324219 74.25 C 164.476562 73.648438 165 73.125 166.050781 72.675781 C 169.125 71.324219 184.5 70.726562 187.648438 71.324219 C 188.550781 71.550781 189 71.773438 189.300781 72.148438 C 189.601562 72.523438 189.824219 73.050781 189.75 73.5 C 189.601562 74.101562 189.226562 74.699219 188.25 75.300781 C 185.25 77.324219 168.375 82.949219 164.925781 82.351562 C 163.800781 82.125 163.050781 81.375 162.898438 80.773438 C 162.824219 80.101562 163.351562 79.125 164.25 78.601562 C 166.050781 77.550781 170.699219 78.074219 175.050781 78 C 181.648438 77.851562 196.800781 77.25 200.101562 78.074219 C 201 78.300781 201.375 78.449219 201.675781 78.898438 C 201.976562 79.351562 202.125 80.175781 201.898438 80.625 C 201.601562 81.226562 201 81.601562 199.726562 81.898438 C 195.375 83.023438 170.773438 81.074219 166.875 79.875 C 165.898438 79.574219 165.601562 79.351562 165.300781 78.898438 C 165 78.523438 164.851562 78 165 77.550781 C 165.226562 76.949219 167.101562 75.898438 167.101562 75.898438 " clip-rule="nonzero"/></clipPath><clipPath id="3ea061abbb"><path d="M 0.222656 0 L 89.800781 0 L 89.800781 227.800781 L 0.222656 227.800781 Z M 0.222656 0 " clip-rule="nonzero"/></clipPath><clipPath id="d4b09cf268"><path d="M 12.023438 4.898438 C 46.375 7.449219 46.675781 7.824219 46.898438 8.273438 C 47.050781 8.726562 47.125 9.25 46.898438 9.625 C 46.675781 10.148438 46.074219 10.601562 45.101562 10.898438 C 42.25 11.726562 32.351562 10.226562 26.273438 10.375 C 20.648438 10.449219 12.476562 11.800781 9.925781 11.351562 C 9.023438 11.125 8.648438 10.976562 8.273438 10.601562 C 7.976562 10.148438 7.75 9.398438 7.976562 8.800781 C 8.425781 7.898438 10.148438 7.226562 12.101562 6.398438 C 16.226562 4.601562 29.050781 0.550781 32.199219 0.398438 C 33.101562 0.398438 33.550781 0.476562 34 0.773438 C 34.449219 1.148438 34.824219 1.976562 34.75 2.5 C 34.601562 3.175781 34.226562 3.773438 33.25 4.300781 C 30.324219 5.800781 14.351562 7.074219 11.125 5.800781 C 10 5.351562 9.25 4.449219 9.25 3.773438 C 9.25 3.101562 9.773438 2.199219 11.050781 1.675781 C 16.148438 -0.648438 54.550781 -0.199219 59.199219 2.425781 C 60.25 3.101562 60.625 4.074219 60.550781 4.75 C 60.476562 5.351562 59.875 5.875 58.898438 6.324219 C 55.976562 7.601562 41.425781 8.875 38.425781 7.601562 C 37.375 7.148438 36.699219 6.25 36.699219 5.574219 C 36.699219 4.898438 37.523438 4.074219 38.5 3.625 C 40.601562 2.648438 45.773438 3.175781 49.898438 3.25 C 54.625 3.25 62.875 3.324219 65.273438 4 C 66.175781 4.300781 66.625 4.523438 66.851562 4.976562 C 67.148438 5.425781 67.300781 6.324219 67 6.773438 C 66.773438 7.375 65.425781 7.375 65.125 7.976562 C 64.75 8.648438 65.273438 9.476562 64.976562 10.601562 C 64.523438 12.699219 62.125 16.074219 60.851562 19.601562 C 59.199219 24.101562 58.148438 30.773438 56.273438 35.574219 C 54.550781 39.851562 51.851562 45.398438 50.351562 47.125 C 49.824219 47.726562 49.375 47.949219 48.851562 48.023438 C 48.324219 48.175781 47.574219 48.101562 47.125 47.800781 C 46.523438 47.351562 45.925781 46.449219 45.851562 45.25 C 45.699219 42.476562 49.898438 35.425781 51.023438 31.226562 C 51.851562 27.851562 51.25 22.601562 52.523438 22 C 53.425781 21.550781 56.050781 22.824219 56.351562 24.175781 C 57.101562 27.101562 47.574219 36.925781 44.875 42.175781 C 43.074219 45.851562 42.476562 50.574219 41.125 52.074219 C 40.449219 52.824219 39.625 53.199219 39.023438 53.050781 C 38.425781 52.976562 37.449219 52.300781 37.375 51.550781 C 37.226562 49.601562 42.550781 44.574219 44.425781 41.199219 C 46 38.199219 46.824219 33.550781 48.101562 32.273438 C 48.699219 31.675781 49.300781 31.375 49.824219 31.449219 C 50.425781 31.449219 51.175781 31.976562 51.550781 32.425781 C 51.773438 32.800781 51.851562 33.101562 51.773438 33.851562 C 51.699219 36.25 49.300781 47.273438 47.351562 49.449219 C 46.523438 50.351562 45.398438 50.800781 44.726562 50.574219 C 44.050781 50.351562 43.523438 49.148438 43.300781 48.101562 C 42.925781 46.226562 42.925781 41.648438 44.125 40.449219 C 45.023438 39.550781 47.726562 39.175781 48.25 39.851562 C 49.148438 40.976562 45.925781 48.398438 44.648438 49.824219 C 44.199219 50.425781 43.75 50.574219 43.226562 50.648438 C 42.625 50.648438 41.574219 50.425781 41.199219 49.898438 C 40.75 49.300781 40.601562 47.800781 40.898438 47.125 C 41.273438 46.375 42.324219 45.550781 43.074219 45.550781 C 43.75 45.476562 44.648438 45.925781 45.023438 46.449219 C 45.398438 46.976562 44.726562 48.101562 45.324219 48.625 C 47.125 50.125 60.699219 47.351562 63.25 47.949219 C 64 48.175781 64.375 48.324219 64.675781 48.699219 C 64.976562 49.226562 65.273438 50.199219 65.125 50.800781 C 64.976562 51.398438 64.300781 52 63.699219 52.300781 C 62.949219 52.675781 62.125 52.675781 60.773438 52.75 C 57.550781 52.976562 46.074219 54.101562 44.125 52.601562 C 43.375 52 43.300781 50.800781 43.449219 50.199219 C 43.601562 49.601562 44.125 49.074219 44.949219 48.773438 C 47.199219 47.949219 54.699219 49.75 58.976562 49.675781 C 62.648438 49.601562 65.949219 48.625 69.023438 48.773438 C 71.800781 48.851562 75.550781 49.074219 76.75 50.199219 C 77.5 50.800781 77.5 51.773438 77.574219 52.824219 C 77.648438 54.175781 77.125 55.601562 76.601562 57.625 C 75.625 61.449219 74.125 68.726562 71.875 73.601562 C 69.773438 78.324219 65.726562 81.925781 63.625 86.425781 C 61.601562 90.851562 58.449219 99.550781 59.351562 100.375 C 59.726562 100.75 60.476562 99.625 61.523438 99.550781 C 63.773438 99.324219 68.574219 101.199219 72.398438 101.425781 C 76.523438 101.574219 82.898438 100.226562 85.449219 100.375 C 86.5 100.523438 87.023438 100.523438 87.625 100.898438 C 88.300781 101.351562 89.199219 102.023438 89.425781 102.773438 C 89.648438 103.523438 89.5 104.351562 89.050781 105.398438 C 88.300781 107.425781 85.523438 109.898438 83.574219 113.199219 C 80.726562 118 78.699219 125.574219 74.425781 131.949219 C 68.949219 140.050781 58.75 148.375 52 156.925781 C 45.625 165.023438 40.375 175.300781 34.898438 181.824219 C 30.925781 186.550781 26.050781 190 23.273438 193.148438 C 21.550781 195.101562 20.425781 196.300781 19.449219 198.324219 C 18.398438 200.425781 18.476562 202.75 17.351562 205.675781 C 15.625 210.101562 11.800781 218.800781 9.25 222.023438 C 7.898438 223.675781 6.101562 225.324219 5.351562 225.175781 C 4.75 225.023438 4.523438 223.675781 4.375 222.851562 C 4.226562 221.875 4.148438 221.125 4.523438 219.625 C 5.800781 215.351562 13.75 202.226562 17.875 196.300781 C 20.574219 192.324219 22.226562 191.351562 25.601562 186.925781 C 32.875 177.101562 51.101562 148.375 58.601562 138.699219 C 62.050781 134.199219 64.148438 132.476562 66.625 129.25 C 69.175781 126.023438 71.5 120.324219 73.601562 119.199219 C 74.726562 118.601562 76 118.601562 76.675781 119.125 C 77.351562 119.574219 77.726562 121.300781 77.574219 122.050781 C 77.5 122.574219 77.050781 123.023438 76.601562 123.324219 C 76 123.625 74.875 123.773438 74.199219 123.476562 C 73.601562 123.175781 72.925781 122.273438 72.699219 121.601562 C 72.550781 121.074219 72.699219 120.476562 72.925781 120.023438 C 73.300781 119.5 74.199219 118.824219 74.875 118.675781 C 75.398438 118.523438 76 118.675781 76.449219 118.976562 C 76.898438 119.199219 77.351562 119.648438 77.5 120.175781 C 77.726562 120.773438 77.726562 121.523438 77.351562 122.5 C 76.523438 124.75 72.851562 129.324219 70.226562 132.398438 C 67.675781 135.476562 64.675781 137.648438 61.824219 141.023438 C 58.375 145.226562 55.148438 150.023438 51.324219 155.800781 C 46.226562 163.523438 39.699219 175.75 34.226562 183.550781 C 29.949219 189.699219 25.75 193.375 21.851562 199.300781 C 17.273438 206.125 12.175781 217.75 8.800781 222.476562 C 7.074219 224.800781 5.875 226.75 4.449219 227.273438 C 3.476562 227.726562 2.125 227.5 1.449219 226.976562 C 0.773438 226.523438 0.25 225.550781 0.25 224.648438 C 0.25 223.449219 1.601562 221.351562 2.5 220.523438 C 3.175781 219.925781 4 220.375 4.824219 219.625 C 7 217.601562 10.976562 208.226562 12.699219 203.875 C 13.824219 201.023438 13.601562 198.925781 14.875 196.523438 C 16.300781 193.75 18.625 191.351562 21.101562 188.425781 C 24.25 184.824219 28.449219 181.601562 32.273438 176.875 C 37.375 170.574219 42.25 161.351562 48.25 153.625 C 54.925781 145.074219 65.574219 136.148438 70.898438 127.976562 C 74.949219 121.898438 76.601562 114.699219 79.226562 110.273438 C 80.949219 107.425781 83.273438 103.375 84.324219 103.449219 C 84.851562 103.523438 85.75 105.101562 85.449219 105.625 C 84.625 107.050781 73.976562 106.449219 68.875 106.074219 C 64.523438 105.773438 59.125 104.875 56.648438 103.898438 C 55.523438 103.375 54.773438 103 54.324219 102.175781 C 53.875 101.425781 54.023438 100.449219 54.175781 99.101562 C 54.476562 96.398438 56.425781 90.324219 57.851562 86.800781 C 58.976562 83.949219 60.25 81.699219 61.75 79.375 C 63.25 76.976562 65.273438 75.625 66.773438 72.625 C 69.175781 67.824219 70.976562 52.675781 72.550781 52.375 C 73.148438 52.226562 74.351562 54.101562 74.199219 54.476562 C 73.898438 54.925781 71.199219 53.800781 68.949219 53.648438 C 64.601562 53.351562 54.851562 54.101562 50.425781 53.800781 C 47.875 53.574219 45.699219 53.648438 44.574219 52.898438 C 43.824219 52.375 43.300781 51.398438 43.375 50.726562 C 43.449219 50.050781 43.976562 49.226562 45.023438 48.773438 C 47.648438 47.425781 60.023438 47.648438 62.726562 47.949219 C 63.476562 48.023438 63.851562 48.101562 64.226562 48.324219 C 64.675781 48.625 65.050781 49.226562 65.125 49.675781 C 65.273438 50.199219 65.199219 50.875 64.898438 51.25 C 64.601562 51.773438 64.148438 52.148438 63.175781 52.449219 C 60.25 53.351562 47.199219 53.273438 43.675781 52.976562 C 42.398438 52.824219 41.574219 52.824219 40.976562 52.300781 C 40.375 51.773438 40.074219 50.648438 40.074219 49.75 C 40.074219 48.625 40.75 46.75 41.5 46.148438 C 42.175781 45.625 43.523438 45.550781 44.199219 45.773438 C 44.648438 45.925781 45.101562 46.449219 45.324219 46.976562 C 45.476562 47.425781 45.550781 48.101562 45.324219 48.625 C 45.175781 49.226562 44.726562 49.898438 44.273438 50.199219 C 43.824219 50.574219 43.148438 50.726562 42.625 50.648438 C 42.175781 50.574219 41.5 50.273438 41.199219 49.898438 C 40.824219 49.523438 40.601562 49.074219 40.601562 48.324219 C 40.523438 46.449219 42.550781 39.699219 44.199219 38.199219 C 45.175781 37.449219 46.898438 37.226562 47.574219 37.675781 C 48.25 38.050781 48.476562 39.324219 48.550781 40.601562 C 48.773438 42.699219 48.476562 47.949219 47.351562 49.449219 C 46.75 50.273438 45.398438 50.800781 44.726562 50.574219 C 44.050781 50.351562 43.449219 49.300781 43.300781 48.101562 C 42.925781 45.175781 46.148438 34.898438 47.875 32.648438 C 48.476562 31.824219 49.226562 31.449219 49.824219 31.449219 C 50.351562 31.375 50.875 31.675781 51.175781 32.050781 C 51.550781 32.425781 51.851562 32.949219 51.773438 33.851562 C 51.625 36.25 47.726562 43.824219 45.476562 47.199219 C 43.898438 49.601562 41.800781 52.074219 40.449219 52.75 C 39.773438 53.125 39.101562 53.125 38.574219 52.976562 C 38.050781 52.75 37.523438 52.148438 37.375 51.550781 C 37.148438 50.5 37.898438 48.925781 38.574219 47.199219 C 39.625 44.273438 41.800781 39.773438 43.976562 35.800781 C 46.601562 31.074219 50.726562 22.074219 53.425781 20.875 C 54.550781 20.351562 55.976562 20.648438 56.574219 21.324219 C 57.175781 22.074219 56.726562 23.875 56.574219 25.375 C 56.425781 27.476562 56.125 29.726562 55.375 32.5 C 54.398438 36.550781 51.851562 45.175781 50.351562 47.125 C 49.824219 47.726562 49.375 47.949219 48.851562 48.023438 C 48.324219 48.175781 47.574219 48.101562 47.125 47.800781 C 46.523438 47.351562 45.851562 46.375 45.851562 45.25 C 45.851562 42.398438 50.726562 36.101562 52.601562 31.300781 C 54.398438 26.574219 55 21.175781 56.800781 16.75 C 58.449219 12.625 60.773438 7.226562 62.648438 5.351562 C 63.550781 4.449219 64.523438 4 65.273438 4 C 65.875 4.074219 66.625 4.523438 66.851562 4.976562 C 67.148438 5.425781 67.226562 6.324219 67 6.773438 C 66.773438 7.300781 66.476562 7.675781 65.574219 7.976562 C 62.273438 9.101562 41.949219 9.25 38.425781 7.601562 C 37.300781 7.074219 36.699219 6.25 36.699219 5.574219 C 36.699219 4.898438 37.148438 4.226562 38.050781 3.699219 C 40.75 2.199219 56.425781 1.375 59.199219 2.425781 C 59.949219 2.800781 60.25 3.324219 60.476562 3.773438 C 60.625 4.226562 60.625 4.824219 60.398438 5.199219 C 59.949219 5.800781 59.050781 6.175781 57.398438 6.476562 C 51.550781 7.675781 22.75 6.550781 15.25 5.949219 C 12.550781 5.726562 10.675781 5.875 9.773438 5.125 C 9.324219 4.675781 9.175781 3.851562 9.324219 3.25 C 9.476562 2.648438 10 2.125 11.050781 1.675781 C 14.125 0.324219 29.5 -0.273438 32.648438 0.324219 C 33.550781 0.550781 34 0.773438 34.300781 1.148438 C 34.601562 1.523438 34.824219 2.050781 34.75 2.5 C 34.601562 3.101562 34.226562 3.699219 33.25 4.300781 C 30.25 6.324219 13.375 11.949219 9.925781 11.351562 C 8.800781 11.125 8.050781 10.375 7.898438 9.773438 C 7.824219 9.101562 8.351562 8.125 9.25 7.601562 C 11.050781 6.550781 15.699219 7.074219 20.050781 7 C 26.648438 6.851562 41.800781 6.25 45.101562 7.074219 C 46 7.300781 46.375 7.449219 46.675781 7.898438 C 46.976562 8.351562 47.125 9.175781 46.898438 9.625 C 46.601562 10.226562 46 10.601562 44.726562 10.898438 C 40.375 12.023438 15.773438 10.074219 11.875 8.875 C 10.898438 8.574219 10.601562 8.351562 10.300781 7.898438 C 10 7.523438 9.851562 7 10 6.550781 C 10.226562 5.949219 12.101562 4.898438 12.101562 4.898438 " clip-rule="nonzero"/></clipPath><clipPath id="e451e711e9"><rect x="0" width="90" y="0" height="228"/></clipPath><clipPath id="7d09ff1796"><path d="M 129.566406 155.203125 L 169.5625 155.203125 L 169.5625 163.398438 L 129.566406 163.398438 Z M 129.566406 155.203125 " clip-rule="nonzero"/></clipPath><clipPath id="bf705df603"><path d="M 131.476562 157.648438 C 168.898438 155.851562 169.273438 156.675781 169.5 157.351562 C 169.574219 157.800781 169.351562 158.476562 169.125 158.851562 C 168.824219 159.300781 168.523438 159.523438 167.773438 159.75 C 165.898438 160.425781 160.574219 159.824219 156.226562 160.199219 C 150.523438 160.726562 139.800781 163.574219 136.574219 163.199219 C 135.449219 163.125 134.851562 162.898438 134.398438 162.449219 C 133.949219 161.925781 133.648438 160.875 133.875 160.199219 C 134.023438 159.523438 134.625 158.851562 135.375 158.476562 C 136.425781 157.800781 137.851562 157.574219 140.023438 157.351562 C 145.125 156.824219 161.851562 157.574219 165.449219 158.175781 C 166.425781 158.324219 166.875 158.398438 167.324219 158.773438 C 167.773438 159.074219 168.074219 159.675781 168.226562 160.199219 C 168.300781 160.726562 168.226562 161.398438 167.925781 161.851562 C 167.550781 162.375 166.949219 162.898438 166.050781 163.050781 C 164.023438 163.425781 159.601562 161.324219 155.699219 160.949219 C 150.449219 160.351562 140.023438 161.398438 137.476562 160.574219 C 136.648438 160.351562 136.351562 160.050781 136.050781 159.601562 C 135.75 159.226562 135.601562 158.476562 135.675781 157.949219 C 135.75 157.425781 136.050781 156.824219 136.425781 156.449219 C 136.875 156.074219 137.699219 155.851562 138.226562 155.851562 C 138.75 155.925781 139.273438 156.074219 139.648438 156.449219 C 140.023438 156.898438 140.476562 157.949219 140.398438 158.550781 C 140.324219 159.226562 139.726562 160.125 139.125 160.425781 C 138.523438 160.726562 137.476562 160.726562 136.875 160.351562 C 136.273438 160.050781 135.75 159.148438 135.675781 158.476562 C 135.601562 157.800781 135.976562 156.824219 136.5 156.449219 C 137.175781 156 138.75 155.925781 139.425781 156.300781 C 140.023438 156.675781 140.476562 157.648438 140.476562 158.324219 C 140.398438 159 139.949219 159.976562 139.351562 160.273438 C 138.675781 160.648438 137.101562 160.5 136.425781 160.050781 C 135.898438 159.675781 135.523438 158.625 135.675781 157.949219 C 135.824219 157.273438 136.351562 156.449219 137.476562 155.925781 C 140.324219 154.726562 150.824219 155.773438 156.226562 156.375 C 160.425781 156.898438 165.75 157.351562 167.324219 158.773438 C 168.074219 159.449219 168.375 160.648438 168.148438 161.324219 C 167.925781 162.074219 167.25 162.675781 166.050781 163.050781 C 162.523438 164.175781 148.425781 161.925781 142.949219 162.226562 C 139.949219 162.375 137.476562 163.5 135.976562 163.199219 C 135.226562 163.125 134.773438 162.898438 134.398438 162.449219 C 134.023438 161.925781 133.648438 160.875 133.875 160.199219 C 134.023438 159.523438 134.550781 158.925781 135.375 158.476562 C 137.023438 157.5 140.550781 157.5 144.226562 157.125 C 150.148438 156.449219 164.773438 154.648438 167.773438 155.398438 C 168.523438 155.625 168.824219 155.925781 169.050781 156.300781 C 169.351562 156.75 169.5 157.351562 169.5 157.875 C 169.425781 158.324219 169.125 158.925781 168.75 159.300781 C 168.375 159.601562 168.148438 159.675781 167.25 159.824219 C 163.273438 160.726562 135.75 163.648438 131.398438 161.851562 C 130.199219 161.324219 129.601562 160.425781 129.601562 159.675781 C 129.601562 159 131.476562 157.648438 131.476562 157.648438 " clip-rule="nonzero"/></clipPath><clipPath id="704f60eb75"><path d="M 0.601562 0.203125 L 40.5625 0.203125 L 40.5625 8.398438 L 0.601562 8.398438 Z M 0.601562 0.203125 " clip-rule="nonzero"/></clipPath><clipPath id="f998f329cd"><path d="M 2.476562 2.648438 C 39.898438 0.851562 40.273438 1.675781 40.5 2.351562 C 40.574219 2.800781 40.351562 3.476562 40.125 3.851562 C 39.824219 4.300781 39.523438 4.523438 38.773438 4.75 C 36.898438 5.425781 31.574219 4.824219 27.226562 5.199219 C 21.523438 5.726562 10.800781 8.574219 7.574219 8.199219 C 6.449219 8.125 5.851562 7.898438 5.398438 7.449219 C 4.949219 6.925781 4.648438 5.875 4.875 5.199219 C 5.023438 4.523438 5.625 3.851562 6.375 3.476562 C 7.425781 2.800781 8.851562 2.574219 11.023438 2.351562 C 16.125 1.824219 32.851562 2.574219 36.449219 3.175781 C 37.425781 3.324219 37.875 3.398438 38.324219 3.773438 C 38.773438 4.074219 39.074219 4.675781 39.226562 5.199219 C 39.300781 5.726562 39.226562 6.398438 38.925781 6.851562 C 38.550781 7.375 37.949219 7.898438 37.050781 8.050781 C 35.023438 8.425781 30.601562 6.324219 26.699219 5.949219 C 21.449219 5.351562 11.023438 6.398438 8.476562 5.574219 C 7.648438 5.351562 7.351562 5.050781 7.050781 4.601562 C 6.75 4.226562 6.601562 3.476562 6.675781 2.949219 C 6.75 2.425781 7.050781 1.824219 7.425781 1.449219 C 7.875 1.074219 8.699219 0.851562 9.226562 0.851562 C 9.75 0.925781 10.273438 1.074219 10.648438 1.449219 C 11.023438 1.898438 11.476562 2.949219 11.398438 3.550781 C 11.324219 4.226562 10.726562 5.125 10.125 5.425781 C 9.523438 5.726562 8.476562 5.726562 7.875 5.351562 C 7.273438 5.050781 6.75 4.148438 6.675781 3.476562 C 6.601562 2.800781 6.976562 1.824219 7.5 1.449219 C 8.175781 1 9.75 0.925781 10.425781 1.300781 C 11.023438 1.675781 11.476562 2.648438 11.476562 3.324219 C 11.398438 4 10.949219 4.976562 10.351562 5.273438 C 9.675781 5.648438 8.101562 5.5 7.425781 5.050781 C 6.898438 4.675781 6.523438 3.625 6.675781 2.949219 C 6.824219 2.273438 7.351562 1.449219 8.476562 0.925781 C 11.324219 -0.273438 21.824219 0.773438 27.226562 1.375 C 31.425781 1.898438 36.75 2.351562 38.324219 3.773438 C 39.074219 4.449219 39.375 5.648438 39.148438 6.324219 C 38.925781 7.074219 38.25 7.675781 37.050781 8.050781 C 33.523438 9.175781 19.425781 6.925781 13.949219 7.226562 C 10.949219 7.375 8.476562 8.5 6.976562 8.199219 C 6.226562 8.125 5.773438 7.898438 5.398438 7.449219 C 5.023438 6.925781 4.648438 5.875 4.875 5.199219 C 5.023438 4.523438 5.550781 3.925781 6.375 3.476562 C 8.023438 2.5 11.550781 2.5 15.226562 2.125 C 21.148438 1.449219 35.773438 -0.351562 38.773438 0.398438 C 39.523438 0.625 39.824219 0.925781 40.050781 1.300781 C 40.351562 1.75 40.5 2.351562 40.5 2.875 C 40.425781 3.324219 40.125 3.925781 39.75 4.300781 C 39.375 4.601562 39.148438 4.675781 38.25 4.824219 C 34.273438 5.726562 6.75 8.648438 2.398438 6.851562 C 1.199219 6.324219 0.601562 5.425781 0.601562 4.675781 C 0.601562 4 2.476562 2.648438 2.476562 2.648438 " clip-rule="nonzero"/></clipPath><clipPath id="3b6044e1e5"><rect x="0" width="41" y="0" height="9"/></clipPath><clipPath id="b290171146"><path d="M 136.664062 204.296875 L 184.746094 204.296875 L 184.746094 213 L 136.664062 213 Z M 136.664062 204.296875 " clip-rule="nonzero"/></clipPath><clipPath id="f18021a17b"><path d="M 137.851562 207.449219 C 146.25 205.273438 156.449219 206.101562 163.351562 205.875 C 169.875 205.574219 179.324219 203.699219 182.398438 204.601562 C 183.523438 204.898438 184.273438 205.351562 184.5 206.023438 C 184.726562 206.625 184.5 207.824219 183.898438 208.425781 C 182.851562 209.476562 180.226562 209.324219 177.148438 209.699219 C 170.625 210.449219 150.375 211.800781 146.550781 211.425781 C 145.574219 211.273438 145.273438 211.273438 144.898438 210.976562 C 144.375 210.523438 143.925781 209.550781 143.851562 208.949219 C 143.851562 208.425781 144.148438 207.75 144.523438 207.375 C 144.898438 207 145.199219 206.773438 146.023438 206.625 C 149.175781 206.023438 162.675781 208.351562 169.125 208.425781 C 173.773438 208.425781 179.023438 207.300781 181.125 207.601562 C 181.875 207.75 182.324219 207.824219 182.699219 208.199219 C 183.074219 208.648438 183.449219 209.625 183.449219 210.226562 C 183.375 210.75 183.074219 211.351562 182.699219 211.648438 C 182.324219 212.023438 182.023438 212.101562 181.125 212.25 C 177.75 212.925781 158.773438 213.300781 155.175781 212.476562 C 154.125 212.175781 153.675781 211.949219 153.300781 211.5 C 153 211.125 152.851562 210.449219 152.925781 209.925781 C 153.074219 209.398438 153.449219 208.648438 154.125 208.273438 C 155.023438 207.675781 156.375 207.75 158.398438 207.523438 C 163.125 207 178.5 206.023438 181.949219 206.625 C 183 206.773438 183.449219 206.925781 183.898438 207.375 C 184.199219 207.675781 184.425781 208.199219 184.425781 208.648438 C 184.351562 209.175781 183.976562 210.148438 183.523438 210.523438 C 183.226562 210.824219 182.699219 210.976562 182.25 210.976562 C 181.800781 210.976562 181.273438 210.824219 180.898438 210.523438 C 180.523438 210.148438 180 209.25 180.074219 208.648438 C 180.074219 208.050781 180.601562 207.226562 181.050781 206.925781 C 181.425781 206.625 182.023438 206.550781 182.476562 206.625 C 182.851562 206.625 183.375 206.851562 183.675781 207.148438 C 184.050781 207.601562 184.5 208.5 184.351562 209.101562 C 184.199219 209.773438 183.601562 210.449219 182.476562 210.898438 C 178.726562 212.550781 158.851562 213.226562 155.175781 212.476562 C 154.125 212.25 153.675781 211.949219 153.300781 211.5 C 153 211.125 152.773438 210.449219 152.925781 209.925781 C 153.148438 209.25 153.824219 208.5 155.175781 207.976562 C 159 206.550781 177.75 207.074219 181.125 207.601562 C 181.949219 207.75 182.324219 207.898438 182.699219 208.199219 C 183.074219 208.574219 183.449219 209.101562 183.449219 209.699219 C 183.449219 210.375 183.074219 211.425781 182.25 212.023438 C 180.601562 213.074219 176.625 212.625 172.574219 212.625 C 165.976562 212.699219 149.324219 212.324219 145.949219 211.425781 C 145.050781 211.125 144.75 210.976562 144.449219 210.523438 C 144.074219 210.148438 143.851562 209.476562 143.851562 208.949219 C 143.925781 208.425781 144.148438 207.75 144.523438 207.375 C 144.898438 207 146.023438 206.550781 146.023438 206.625 C 146.101562 206.625 144.824219 207.375 144.898438 207.523438 C 145.050781 207.824219 149.476562 206.175781 151.875 206.023438 C 154.351562 205.875 156.226562 206.625 159.449219 206.625 C 165 206.625 178.875 203.398438 182.398438 204.601562 C 183.675781 204.976562 184.425781 205.875 184.648438 206.550781 C 184.800781 207 184.574219 207.675781 184.273438 208.050781 C 183.898438 208.5 183.449219 208.726562 182.398438 209.023438 C 177.898438 210.226562 150.601562 209.851562 143.925781 210.675781 C 141.523438 210.976562 140.398438 211.949219 139.125 211.726562 C 138.148438 211.574219 137.25 210.898438 136.875 210.375 C 136.648438 209.925781 136.648438 209.175781 136.800781 208.726562 C 136.949219 208.273438 137.851562 207.449219 137.851562 207.449219 " clip-rule="nonzero"/></clipPath><clipPath id="e12badb687"><path d="M 0.664062 0.296875 L 48.746094 0.296875 L 48.746094 9 L 0.664062 9 Z M 0.664062 0.296875 " clip-rule="nonzero"/></clipPath><clipPath id="ce4afbaf3a"><path d="M 1.851562 3.449219 C 10.25 1.273438 20.449219 2.101562 27.351562 1.875 C 33.875 1.574219 43.324219 -0.300781 46.398438 0.601562 C 47.523438 0.898438 48.273438 1.351562 48.5 2.023438 C 48.726562 2.625 48.5 3.824219 47.898438 4.425781 C 46.851562 5.476562 44.226562 5.324219 41.148438 5.699219 C 34.625 6.449219 14.375 7.800781 10.550781 7.425781 C 9.574219 7.273438 9.273438 7.273438 8.898438 6.976562 C 8.375 6.523438 7.925781 5.550781 7.851562 4.949219 C 7.851562 4.425781 8.148438 3.75 8.523438 3.375 C 8.898438 3 9.199219 2.773438 10.023438 2.625 C 13.175781 2.023438 26.675781 4.351562 33.125 4.425781 C 37.773438 4.425781 43.023438 3.300781 45.125 3.601562 C 45.875 3.75 46.324219 3.824219 46.699219 4.199219 C 47.074219 4.648438 47.449219 5.625 47.449219 6.226562 C 47.375 6.75 47.074219 7.351562 46.699219 7.648438 C 46.324219 8.023438 46.023438 8.101562 45.125 8.25 C 41.75 8.925781 22.773438 9.300781 19.175781 8.476562 C 18.125 8.175781 17.675781 7.949219 17.300781 7.5 C 17 7.125 16.851562 6.449219 16.925781 5.925781 C 17.074219 5.398438 17.449219 4.648438 18.125 4.273438 C 19.023438 3.675781 20.375 3.75 22.398438 3.523438 C 27.125 3 42.5 2.023438 45.949219 2.625 C 47 2.773438 47.449219 2.925781 47.898438 3.375 C 48.199219 3.675781 48.425781 4.199219 48.425781 4.648438 C 48.351562 5.175781 47.976562 6.148438 47.523438 6.523438 C 47.226562 6.824219 46.699219 6.976562 46.25 6.976562 C 45.800781 6.976562 45.273438 6.824219 44.898438 6.523438 C 44.523438 6.148438 44 5.25 44.074219 4.648438 C 44.074219 4.050781 44.601562 3.226562 45.050781 2.925781 C 45.425781 2.625 46.023438 2.550781 46.476562 2.625 C 46.851562 2.625 47.375 2.851562 47.675781 3.148438 C 48.050781 3.601562 48.5 4.5 48.351562 5.101562 C 48.199219 5.773438 47.601562 6.449219 46.476562 6.898438 C 42.726562 8.550781 22.851562 9.226562 19.175781 8.476562 C 18.125 8.25 17.675781 7.949219 17.300781 7.5 C 17 7.125 16.773438 6.449219 16.925781 5.925781 C 17.148438 5.25 17.824219 4.5 19.175781 3.976562 C 23 2.550781 41.75 3.074219 45.125 3.601562 C 45.949219 3.75 46.324219 3.898438 46.699219 4.199219 C 47.074219 4.574219 47.449219 5.101562 47.449219 5.699219 C 47.449219 6.375 47.074219 7.425781 46.25 8.023438 C 44.601562 9.074219 40.625 8.625 36.574219 8.625 C 29.976562 8.699219 13.324219 8.324219 9.949219 7.425781 C 9.050781 7.125 8.75 6.976562 8.449219 6.523438 C 8.074219 6.148438 7.851562 5.476562 7.851562 4.949219 C 7.925781 4.425781 8.148438 3.75 8.523438 3.375 C 8.898438 3 10.023438 2.550781 10.023438 2.625 C 10.101562 2.625 8.824219 3.375 8.898438 3.523438 C 9.050781 3.824219 13.476562 2.175781 15.875 2.023438 C 18.351562 1.875 20.226562 2.625 23.449219 2.625 C 29 2.625 42.875 -0.601562 46.398438 0.601562 C 47.675781 0.976562 48.425781 1.875 48.648438 2.550781 C 48.800781 3 48.574219 3.675781 48.273438 4.050781 C 47.898438 4.5 47.449219 4.726562 46.398438 5.023438 C 41.898438 6.226562 14.601562 5.851562 7.925781 6.675781 C 5.523438 6.976562 4.398438 7.949219 3.125 7.726562 C 2.148438 7.574219 1.25 6.898438 0.875 6.375 C 0.648438 5.925781 0.648438 5.175781 0.800781 4.726562 C 0.949219 4.273438 1.851562 3.449219 1.851562 3.449219 " clip-rule="nonzero"/></clipPath><clipPath id="a6fa9f76a9"><rect x="0" width="49" y="0" height="9"/></clipPath><clipPath id="312a956168"><path d="M 150.113281 80.910156 L 160.621094 80.910156 L 160.621094 95.992188 L 150.113281 95.992188 Z M 150.113281 80.910156 " clip-rule="nonzero"/></clipPath><clipPath id="c05d48101c"><path d="M 150.675781 92.101562 C 157.425781 80.925781 158.324219 80.925781 158.925781 81.074219 C 159.449219 81.148438 159.976562 81.523438 160.199219 81.976562 C 160.5 82.648438 160.5 84.375 160.050781 84.976562 C 159.675781 85.574219 158.625 86.023438 157.949219 85.875 C 157.125 85.726562 155.851562 84.601562 155.699219 83.851562 C 155.550781 83.101562 156.375 81.601562 157.125 81.148438 C 157.726562 80.851562 158.851562 80.851562 159.449219 81.300781 C 160.050781 81.75 160.648438 82.875 160.574219 84 C 160.425781 86.398438 156.449219 92.398438 154.949219 94.273438 C 154.273438 95.101562 153.75 95.625 153.148438 95.851562 C 152.625 96 152.023438 96 151.5 95.773438 C 150.976562 95.550781 150.300781 94.800781 150.148438 94.199219 C 150 93.523438 150.675781 92.101562 150.675781 92.101562 " clip-rule="nonzero"/></clipPath><clipPath id="ca844d1cb5"><path d="M 0.113281 0.910156 L 10.621094 0.910156 L 10.621094 15.992188 L 0.113281 15.992188 Z M 0.113281 0.910156 " clip-rule="nonzero"/></clipPath><clipPath id="706ed921f7"><path d="M 0.675781 12.101562 C 7.425781 0.925781 8.324219 0.925781 8.925781 1.074219 C 9.449219 1.148438 9.976562 1.523438 10.199219 1.976562 C 10.5 2.648438 10.5 4.375 10.050781 4.976562 C 9.675781 5.574219 8.625 6.023438 7.949219 5.875 C 7.125 5.726562 5.851562 4.601562 5.699219 3.851562 C 5.550781 3.101562 6.375 1.601562 7.125 1.148438 C 7.726562 0.851562 8.851562 0.851562 9.449219 1.300781 C 10.050781 1.75 10.648438 2.875 10.574219 4 C 10.425781 6.398438 6.449219 12.398438 4.949219 14.273438 C 4.273438 15.101562 3.75 15.625 3.148438 15.851562 C 2.625 16 2.023438 16 1.5 15.773438 C 0.976562 15.550781 0.300781 14.800781 0.148438 14.199219 C 0 13.523438 0.675781 12.101562 0.675781 12.101562 " clip-rule="nonzero"/></clipPath><clipPath id="56b4ea65db"><rect x="0" width="11" y="0" height="16"/></clipPath><clipPath id="28710d35ec"><path d="M 124.824219 78.152344 L 181.851562 78.152344 L 181.851562 296.917969 L 124.824219 296.917969 Z M 124.824219 78.152344 " clip-rule="nonzero"/></clipPath><clipPath id="b1c7957b7c"><path d="M 168.449219 85.425781 C 162.148438 105.675781 162.824219 116.101562 161.101562 118.199219 C 160.5 118.949219 159.601562 119.101562 159 118.949219 C 158.324219 118.800781 157.800781 118.351562 157.5 117.226562 C 156.074219 112.875 158.773438 82.425781 161.324219 79.199219 C 161.925781 78.375 162.75 78.300781 163.351562 78.449219 C 163.875 78.601562 164.625 79.351562 164.699219 80.101562 C 164.925781 81.601562 162.824219 84.523438 161.398438 87 C 159.675781 90.226562 156.675781 96.523438 154.574219 97.574219 C 153.601562 98.101562 152.25 97.949219 151.726562 97.425781 C 151.199219 97.050781 151.050781 96.074219 151.273438 95.101562 C 151.648438 93.226562 154.800781 88.273438 156.449219 87.375 C 157.351562 86.925781 158.476562 87 159.074219 87.375 C 159.675781 87.824219 160.050781 88.574219 160.050781 89.925781 C 160.050781 94.875 149.851562 122.398438 146.398438 126 C 145.425781 126.976562 144.449219 127.125 143.851562 127.050781 C 143.324219 126.976562 142.875 126.523438 142.648438 126.074219 C 142.425781 125.625 142.425781 124.875 142.648438 124.125 C 142.949219 123 144.449219 120.375 145.425781 119.925781 C 146.101562 119.699219 147 120 147.449219 120.449219 C 147.898438 120.824219 148.199219 121.351562 148.199219 122.324219 C 148.050781 125.550781 140.625 136.726562 138.449219 143.101562 C 136.800781 148.199219 137.476562 155.925781 135.523438 157.273438 C 134.476562 157.949219 132.074219 157.5 131.699219 156.601562 C 130.726562 154.125 144.300781 140.625 147.75 134.476562 C 149.925781 130.5 150.074219 128.398438 152.023438 124.199219 C 155.324219 117.074219 163.199219 103.726562 166.5 96.074219 C 168.601562 91.125 169.050781 85.050781 170.925781 83.398438 C 171.824219 82.648438 173.101562 82.5 173.773438 82.800781 C 174.375 83.101562 174.898438 83.925781 174.898438 85.050781 C 174.75 88.574219 165.148438 101.398438 162.601562 106.648438 C 161.324219 109.425781 160.726562 110.851562 159.976562 113.324219 C 159.148438 116.175781 159.226562 121.125 157.949219 122.625 C 157.273438 123.449219 156.148438 123.976562 155.476562 123.75 C 154.875 123.523438 154.273438 122.699219 154.125 121.425781 C 153.300781 116.773438 160.050781 92.773438 161.699219 87.300781 C 162.226562 85.574219 162.375 84.523438 163.050781 83.851562 C 163.5 83.398438 164.324219 83.101562 164.925781 83.175781 C 165.523438 83.25 166.273438 83.925781 166.574219 84.375 C 166.875 84.824219 166.875 85.125 166.726562 85.949219 C 166.273438 89.851562 158.398438 112.125 155.773438 118.199219 C 154.648438 120.75 154.050781 122.925781 152.925781 123.449219 C 152.175781 123.824219 150.976562 123.523438 150.449219 123.074219 C 150 122.625 149.851562 122.101562 149.851562 121.125 C 149.773438 118.125 153.148438 108.601562 155.324219 102.75 C 157.5 97.050781 160.5 88.425781 162.824219 86.25 C 163.800781 85.351562 164.925781 84.976562 165.601562 85.273438 C 166.273438 85.5 166.875 86.550781 166.949219 87.898438 C 167.175781 91.875 159.675781 109.351562 157.5 112.351562 C 156.898438 113.175781 156.523438 113.625 155.851562 113.699219 C 155.175781 113.773438 153.976562 113.398438 153.523438 112.726562 C 152.925781 111.601562 153.523438 109.5 154.050781 106.949219 C 155.101562 101.398438 159.449219 83.625 162.148438 81.375 C 162.976562 80.699219 164.101562 80.773438 164.625 81.074219 C 165.300781 81.449219 165.75 82.351562 165.675781 83.851562 C 165.375 91.5 138.976562 141.824219 132.976562 153.449219 C 130.875 157.425781 129.976562 160.425781 128.476562 161.324219 C 127.726562 161.773438 126.75 161.699219 126.148438 161.324219 C 125.550781 160.949219 124.726562 159.824219 124.875 158.851562 C 125.023438 157.199219 127.800781 153.898438 130.050781 152.773438 C 132.523438 151.574219 136.351562 151.949219 139.273438 152.324219 C 142.050781 152.625 145.425781 153.824219 147.226562 154.726562 C 148.351562 155.25 149.324219 155.625 149.773438 156.449219 C 150.148438 157.199219 150.226562 158.550781 149.773438 159.375 C 149.398438 160.125 148.425781 160.800781 147.148438 161.101562 C 144.449219 161.851562 134.625 161.324219 133.800781 159.898438 C 133.5 159.300781 134.324219 157.800781 135.074219 157.425781 C 136.199219 156.824219 139.5 157.574219 140.851562 158.324219 C 141.75 158.773438 142.648438 159.523438 142.800781 160.351562 C 142.949219 161.25 142.125 162.523438 141.226562 163.5 C 139.949219 164.925781 137.023438 167.023438 135 167.25 C 133.351562 167.398438 131.101562 166.5 130.125 165.601562 C 129.449219 164.925781 129 163.648438 129.226562 162.898438 C 129.375 162.074219 130.273438 161.324219 131.398438 161.023438 C 133.273438 160.5 137.25 162.523438 140.398438 162.675781 C 143.851562 162.824219 148.574219 161.023438 151.351562 161.625 C 153.226562 162 154.949219 162.976562 155.925781 164.023438 C 156.601562 164.851562 156.75 165.601562 156.976562 166.726562 C 157.199219 168.601562 157.050781 171.226562 156.300781 174.375 C 155.023438 180 148.875 190.800781 147.300781 197.023438 C 146.25 201.226562 147.523438 206.773438 146.023438 207.898438 C 145.199219 208.574219 142.800781 208.125 142.351562 207.300781 C 141.523438 205.425781 148.875 198.148438 150.976562 192.75 C 153.375 186.824219 153.375 175.5 155.398438 172.949219 C 156.148438 172.050781 157.199219 171.75 157.949219 171.824219 C 158.625 171.898438 159.449219 172.648438 159.75 173.25 C 159.976562 173.773438 159.976562 174.375 159.824219 174.976562 C 159.601562 175.875 158.925781 176.625 158.023438 178.199219 C 155.773438 182.023438 148.125 192 145.5 198.300781 C 143.398438 203.175781 143.175781 212.023438 142.050781 212.175781 C 141.601562 212.25 140.625 210.824219 140.699219 209.773438 C 140.925781 207.074219 149.101562 200.175781 151.648438 196.425781 C 153.375 193.875 154.199219 192.449219 155.476562 189.75 C 157.125 186.074219 159.375 180.375 160.5 176.25 C 161.398438 173.023438 160.949219 167.625 162 167.175781 C 162.601562 166.949219 164.023438 167.851562 164.324219 168.898438 C 165 171.898438 157.273438 181.949219 154.5 188.699219 C 151.726562 195.449219 146.851562 206.550781 147.75 209.476562 C 148.125 210.523438 149.101562 210.675781 150 211.050781 C 151.125 211.648438 152.175781 211.800781 153.976562 212.25 C 157.875 213.148438 169.648438 214.5 172.800781 215.550781 C 173.925781 215.925781 174.375 216.074219 174.976562 216.601562 C 175.574219 217.050781 176.023438 217.5 176.324219 218.398438 C 177 220.199219 176.925781 223.800781 176.773438 227.324219 C 176.550781 232.726562 175.574219 241.648438 174.074219 247.5 C 172.875 252.226562 170.851562 258 169.273438 259.949219 C 168.601562 260.773438 167.925781 261.148438 167.175781 261.226562 C 166.5 261.300781 165.449219 260.851562 165 260.25 C 164.550781 259.726562 164.398438 258.976562 164.550781 257.851562 C 164.925781 255.074219 170.175781 247.726562 171.75 243.976562 C 172.800781 241.574219 173.398438 240.074219 173.851562 237.824219 C 174.449219 235.125 173.851562 230.398438 174.898438 228.824219 C 175.5 228 176.550781 227.476562 177.300781 227.550781 C 178.050781 227.699219 179.175781 228.300781 179.324219 229.425781 C 179.925781 232.648438 169.875 245.550781 167.476562 252.148438 C 165.824219 256.875 166.199219 260.773438 164.851562 264.824219 C 163.574219 268.726562 160.949219 272.625 159.675781 276 C 158.625 278.625 158.023438 280.800781 157.351562 283.125 C 156.675781 285.449219 155.773438 288.300781 155.625 290.101562 C 155.625 291.148438 156.375 292.351562 156 292.726562 C 155.625 293.101562 153.449219 292.875 153.226562 292.273438 C 152.851562 291.375 156.300781 288.449219 157.5 286.050781 C 158.925781 283.199219 159.523438 280.800781 160.949219 276.148438 C 164.25 265.5 172.800781 234.074219 175.125 222.898438 C 176.101562 217.875 176.398438 215.550781 176.699219 211.800781 C 177 207.976562 177.300781 204.523438 176.925781 200.101562 C 176.476562 194.101562 172.875 182.324219 173.25 179.175781 C 173.324219 178.199219 173.625 177.675781 174 177.300781 C 174.375 177 174.824219 176.773438 175.351562 176.851562 C 175.949219 176.925781 177.148438 177.75 177.449219 178.351562 C 177.601562 178.800781 177.601562 179.324219 177.375 179.699219 C 177.148438 180.226562 176.476562 180.898438 175.875 181.050781 C 175.273438 181.199219 174.375 180.898438 173.925781 180.601562 C 173.550781 180.300781 173.324219 179.773438 173.25 179.398438 C 173.175781 178.949219 173.175781 178.425781 173.476562 178.050781 C 173.773438 177.523438 174.523438 176.851562 175.125 176.851562 C 175.800781 176.851562 176.699219 177.226562 177.375 178.125 C 179.101562 180.601562 180.449219 190.574219 181.125 195.75 C 181.726562 199.726562 181.800781 202.800781 181.726562 206.398438 C 181.726562 210.148438 181.574219 213.226562 180.898438 217.949219 C 179.773438 225.523438 177 237.148438 174.449219 247.273438 C 171.675781 258.375 167.773438 273.148438 164.699219 281.625 C 162.75 286.800781 160.726562 291.601562 159.148438 293.925781 C 158.476562 294.976562 158.023438 295.425781 157.199219 295.875 C 156.148438 296.476562 154.425781 297 153.375 296.773438 C 152.476562 296.550781 151.800781 295.648438 151.273438 294.976562 C 150.824219 294.300781 150.601562 293.699219 150.449219 292.648438 C 150.300781 290.550781 151.351562 286.050781 152.023438 283.050781 C 152.625 280.425781 153.226562 278.398438 154.199219 275.699219 C 155.550781 272.25 158.324219 268.050781 159.675781 264.074219 C 161.023438 260.175781 161.25 255.449219 162.300781 252 C 163.125 249.449219 163.800781 248.023438 165.226562 245.324219 C 167.476562 240.898438 172.574219 230.324219 175.199219 228.375 C 176.175781 227.625 177.148438 227.476562 177.898438 227.699219 C 178.5 227.925781 179.023438 228.601562 179.324219 229.425781 C 179.851562 230.925781 179.398438 234 178.800781 236.699219 C 178.050781 240.300781 176.175781 245.175781 174.523438 249.074219 C 172.949219 252.898438 170.625 258.226562 169.273438 259.949219 C 168.75 260.625 168.375 260.925781 167.851562 261.148438 C 167.25 261.300781 166.5 261.300781 165.976562 261 C 165.300781 260.625 164.550781 259.726562 164.398438 258.449219 C 164.101562 255.601562 168.601562 249.074219 169.800781 243.449219 C 171.300781 236.699219 175.273438 225.148438 171.75 220.5 C 168.226562 215.773438 153.375 217.5 148.425781 215.773438 C 146.023438 214.875 144.074219 214.199219 143.25 213.074219 C 142.648438 212.25 142.726562 211.648438 142.800781 210.375 C 143.101562 206.925781 146.175781 198 148.726562 191.625 C 151.5 184.726562 156.226562 175.351562 159.148438 170.699219 C 160.800781 168.148438 162.375 165.300781 163.726562 165.226562 C 164.550781 165.074219 165.75 166.050781 166.125 167.324219 C 167.101562 170.398438 162.976562 181.425781 161.101562 186.601562 C 159.75 190.199219 158.625 192.375 156.824219 195.523438 C 154.648438 199.273438 151.199219 204.300781 148.574219 207.375 C 146.625 209.625 144.75 211.574219 142.875 212.699219 C 141.523438 213.523438 139.800781 214.351562 138.898438 214.050781 C 138.074219 213.675781 137.550781 212.625 137.398438 211.273438 C 137.023438 208.273438 139.273438 201.75 141.601562 196.351562 C 144.675781 189.148438 152.773438 174.898438 155.773438 172.5 C 156.675781 171.824219 157.273438 171.675781 157.949219 171.824219 C 158.699219 172.050781 159.675781 173.175781 159.898438 173.851562 C 160.050781 174.226562 159.898438 174.976562 159.824219 174.976562 C 159.75 174.976562 159.523438 173.398438 159.375 173.398438 C 158.773438 173.398438 157.574219 186.148438 156.148438 191.023438 C 155.101562 194.550781 153.976562 197.023438 152.398438 200.023438 C 150.75 203.324219 148.050781 208.425781 146.25 210.074219 C 145.425781 210.898438 144.75 211.351562 143.925781 211.425781 C 143.101562 211.5 141.898438 211.273438 141.375 210.675781 C 140.773438 210 140.851562 208.800781 140.851562 207.300781 C 140.851562 204.375 141.375 198.523438 142.574219 194.324219 C 143.851562 189.898438 146.925781 185.699219 148.5 181.273438 C 150.074219 177 152.625 170.550781 152.101562 168.300781 C 151.875 167.398438 151.5 166.949219 150.601562 166.574219 C 148.800781 165.824219 143.476562 167.773438 140.101562 167.625 C 136.875 167.476562 132.375 166.726562 130.726562 165.898438 C 129.976562 165.523438 129.601562 165.226562 129.375 164.699219 C 129.074219 164.023438 129.074219 162.898438 129.449219 162.300781 C 129.75 161.699219 130.574219 161.101562 131.398438 161.023438 C 132.675781 160.875 136.5 162.601562 136.5 162.824219 C 136.5 162.976562 134.25 163.125 134.175781 162.898438 C 134.101562 162.523438 137.550781 159.976562 138.375 160.273438 C 138.898438 160.5 139.5 162.449219 139.125 162.824219 C 138.601562 163.351562 134.699219 161.925781 133.351562 160.949219 C 132.300781 160.199219 131.175781 159.074219 131.25 158.175781 C 131.324219 157.125 132.675781 155.773438 134.101562 155.25 C 136.5 154.5 143.699219 155.625 145.199219 157.050781 C 145.875 157.726562 146.101562 159.226562 145.726562 159.601562 C 144.976562 160.273438 140.023438 157.425781 137.773438 157.199219 C 136.050781 157.050781 134.398438 157.949219 133.125 157.648438 C 132.074219 157.425781 130.5 156.074219 130.574219 156 C 130.648438 155.851562 133.050781 156.375 133.125 156.898438 C 133.273438 157.800781 128.773438 161.476562 127.351562 161.625 C 126.523438 161.699219 125.699219 161.023438 125.324219 160.574219 C 124.949219 160.125 124.800781 159.75 124.875 158.851562 C 125.25 155.25 133.949219 139.050781 137.851562 131.625 C 140.625 126.300781 142.648438 123.898438 145.574219 118.199219 C 150.226562 109.050781 158.175781 83.925781 162.148438 81.375 C 163.273438 80.699219 164.476562 80.925781 165.074219 81.375 C 165.601562 81.824219 165.75 82.726562 165.675781 83.851562 C 165.523438 86.023438 162.898438 90 161.625 93.976562 C 160.050781 99.148438 159.300781 109.800781 157.5 112.351562 C 156.824219 113.324219 156 113.699219 155.324219 113.699219 C 154.726562 113.699219 153.898438 113.175781 153.523438 112.726562 C 153.226562 112.199219 153.226562 111.675781 153.375 110.625 C 153.898438 106.949219 159.976562 89.023438 162.824219 86.25 C 163.800781 85.273438 164.925781 84.976562 165.601562 85.199219 C 166.273438 85.5 166.949219 86.625 166.949219 87.898438 C 166.949219 90.976562 161.101562 98.398438 159 104.101562 C 156.824219 109.875 156.074219 119.925781 154.050781 122.398438 C 153.226562 123.300781 152.101562 123.824219 151.351562 123.601562 C 150.675781 123.375 149.925781 122.175781 149.851562 121.125 C 149.699219 119.324219 151.800781 117 153.074219 113.699219 C 155.550781 107.175781 159.675781 87.375 162.75 84.300781 C 163.648438 83.324219 164.773438 83.023438 165.449219 83.324219 C 166.125 83.625 166.648438 84.75 166.726562 85.949219 C 166.875 88.050781 164.699219 91.425781 163.648438 95.398438 C 161.851562 102 160.273438 118.648438 158.101562 122.175781 C 157.425781 123.226562 156.675781 123.898438 156 123.824219 C 155.324219 123.824219 154.351562 122.851562 154.050781 121.949219 C 153.601562 120.449219 154.949219 117.375 155.550781 115.125 C 156.148438 112.949219 156.601562 111.300781 157.648438 108.675781 C 159.226562 104.625 162.300781 97.726562 164.851562 93.226562 C 166.949219 89.398438 169.273438 84.074219 171.300781 83.023438 C 172.273438 82.5 173.625 82.648438 174.226562 83.101562 C 174.75 83.625 174.898438 84.601562 174.75 85.875 C 174.449219 88.949219 171.375 95.101562 168.675781 101.101562 C 164.476562 110.550781 157.199219 126 151.050781 136.5 C 145.800781 145.425781 138.523438 159.226562 134.550781 160.351562 C 133.125 160.800781 131.476562 159.824219 130.800781 158.773438 C 130.125 157.574219 130.875 155.398438 131.175781 153.300781 C 131.625 150.449219 132.449219 147.300781 133.800781 143.398438 C 136.050781 137.324219 141.226562 123.300781 144.148438 120.824219 C 145.199219 120 146.324219 119.773438 147 120.148438 C 147.675781 120.449219 148.125 121.875 148.050781 122.851562 C 147.976562 123.976562 146.773438 125.699219 146.101562 126.375 C 145.726562 126.824219 145.273438 127.125 144.824219 127.125 C 144.226562 127.125 143.023438 126.601562 142.648438 126.074219 C 142.351562 125.625 142.425781 125.175781 142.648438 124.125 C 143.324219 119.625 152.476562 91.949219 155.699219 88.199219 C 156.601562 87.226562 157.351562 87 158.023438 87 C 158.625 87 159.148438 87.375 159.523438 87.75 C 159.824219 88.199219 160.125 88.726562 160.125 89.324219 C 160.125 90.226562 159.523438 91.5 158.851562 92.625 C 157.875 94.199219 156 96.976562 154.574219 97.574219 C 153.601562 98.023438 152.25 97.949219 151.726562 97.425781 C 151.199219 97.050781 151.050781 96.148438 151.273438 95.101562 C 151.875 92.023438 159.148438 80.324219 161.625 78.824219 C 162.449219 78.300781 163.199219 78.375 163.726562 78.601562 C 164.25 78.824219 164.476562 79.199219 164.699219 80.101562 C 165.75 84.226562 163.648438 114.824219 161.101562 118.199219 C 160.425781 119.023438 159.601562 119.101562 159 118.949219 C 158.324219 118.800781 157.800781 118.199219 157.5 117.226562 C 156.675781 114.449219 158.550781 104.851562 159.824219 99.074219 C 161.101562 93.675781 162.824219 85.574219 164.851562 83.699219 C 165.675781 82.875 166.800781 82.648438 167.398438 82.949219 C 168 83.25 168.449219 85.425781 168.449219 85.425781 " clip-rule="nonzero"/></clipPath><clipPath id="912c1d2a51"><path d="M 0.824219 0.238281 L 57.851562 0.238281 L 57.851562 218.917969 L 0.824219 218.917969 Z M 0.824219 0.238281 " clip-rule="nonzero"/></clipPath><clipPath id="c76e598f96"><path d="M 44.449219 7.425781 C 38.148438 27.675781 38.824219 38.101562 37.101562 40.199219 C 36.5 40.949219 35.601562 41.101562 35 40.949219 C 34.324219 40.800781 33.800781 40.351562 33.5 39.226562 C 32.074219 34.875 34.773438 4.425781 37.324219 1.199219 C 37.925781 0.375 38.75 0.300781 39.351562 0.449219 C 39.875 0.601562 40.625 1.351562 40.699219 2.101562 C 40.925781 3.601562 38.824219 6.523438 37.398438 9 C 35.675781 12.226562 32.675781 18.523438 30.574219 19.574219 C 29.601562 20.101562 28.25 19.949219 27.726562 19.425781 C 27.199219 19.050781 27.050781 18.074219 27.273438 17.101562 C 27.648438 15.226562 30.800781 10.273438 32.449219 9.375 C 33.351562 8.925781 34.476562 9 35.074219 9.375 C 35.675781 9.824219 36.050781 10.574219 36.050781 11.925781 C 36.050781 16.875 25.851562 44.398438 22.398438 48 C 21.425781 48.976562 20.449219 49.125 19.851562 49.050781 C 19.324219 48.976562 18.875 48.523438 18.648438 48.074219 C 18.425781 47.625 18.425781 46.875 18.648438 46.125 C 18.949219 45 20.449219 42.375 21.425781 41.925781 C 22.101562 41.699219 23 42 23.449219 42.449219 C 23.898438 42.824219 24.199219 43.351562 24.199219 44.324219 C 24.050781 47.550781 16.625 58.726562 14.449219 65.101562 C 12.800781 70.199219 13.476562 77.925781 11.523438 79.273438 C 10.476562 79.949219 8.074219 79.5 7.699219 78.601562 C 6.726562 76.125 20.300781 62.625 23.75 56.476562 C 25.925781 52.5 26.074219 50.398438 28.023438 46.199219 C 31.324219 39.074219 39.199219 25.726562 42.5 18.074219 C 44.601562 13.125 45.050781 7.050781 46.925781 5.398438 C 47.824219 4.648438 49.101562 4.5 49.773438 4.800781 C 50.375 5.101562 50.898438 5.925781 50.898438 7.050781 C 50.75 10.574219 41.148438 23.398438 38.601562 28.648438 C 37.324219 31.425781 36.726562 32.851562 35.976562 35.324219 C 35.148438 38.175781 35.226562 43.125 33.949219 44.625 C 33.273438 45.449219 32.148438 45.976562 31.476562 45.75 C 30.875 45.523438 30.273438 44.699219 30.125 43.425781 C 29.300781 38.773438 36.050781 14.773438 37.699219 9.300781 C 38.226562 7.574219 38.375 6.523438 39.050781 5.851562 C 39.5 5.398438 40.324219 5.101562 40.925781 5.175781 C 41.523438 5.25 42.273438 5.925781 42.574219 6.375 C 42.875 6.824219 42.875 7.125 42.726562 7.949219 C 42.273438 11.851562 34.398438 34.125 31.773438 40.199219 C 30.648438 42.75 30.050781 44.925781 28.925781 45.449219 C 28.175781 45.824219 26.976562 45.523438 26.449219 45.074219 C 26 44.625 25.851562 44.101562 25.851562 43.125 C 25.773438 40.125 29.148438 30.601562 31.324219 24.75 C 33.5 19.050781 36.5 10.425781 38.824219 8.25 C 39.800781 7.351562 40.925781 6.976562 41.601562 7.273438 C 42.273438 7.5 42.875 8.550781 42.949219 9.898438 C 43.175781 13.875 35.675781 31.351562 33.5 34.351562 C 32.898438 35.175781 32.523438 35.625 31.851562 35.699219 C 31.175781 35.773438 29.976562 35.398438 29.523438 34.726562 C 28.925781 33.601562 29.523438 31.5 30.050781 28.949219 C 31.101562 23.398438 35.449219 5.625 38.148438 3.375 C 38.976562 2.699219 40.101562 2.773438 40.625 3.074219 C 41.300781 3.449219 41.75 4.351562 41.675781 5.851562 C 41.375 13.5 14.976562 63.824219 8.976562 75.449219 C 6.875 79.425781 5.976562 82.425781 4.476562 83.324219 C 3.726562 83.773438 2.75 83.699219 2.148438 83.324219 C 1.550781 82.949219 0.726562 81.824219 0.875 80.851562 C 1.023438 79.199219 3.800781 75.898438 6.050781 74.773438 C 8.523438 73.574219 12.351562 73.949219 15.273438 74.324219 C 18.050781 74.625 21.425781 75.824219 23.226562 76.726562 C 24.351562 77.25 25.324219 77.625 25.773438 78.449219 C 26.148438 79.199219 26.226562 80.550781 25.773438 81.375 C 25.398438 82.125 24.425781 82.800781 23.148438 83.101562 C 20.449219 83.851562 10.625 83.324219 9.800781 81.898438 C 9.5 81.300781 10.324219 79.800781 11.074219 79.425781 C 12.199219 78.824219 15.5 79.574219 16.851562 80.324219 C 17.75 80.773438 18.648438 81.523438 18.800781 82.351562 C 18.949219 83.25 18.125 84.523438 17.226562 85.5 C 15.949219 86.925781 13.023438 89.023438 11 89.25 C 9.351562 89.398438 7.101562 88.5 6.125 87.601562 C 5.449219 86.925781 5 85.648438 5.226562 84.898438 C 5.375 84.074219 6.273438 83.324219 7.398438 83.023438 C 9.273438 82.5 13.25 84.523438 16.398438 84.675781 C 19.851562 84.824219 24.574219 83.023438 27.351562 83.625 C 29.226562 84 30.949219 84.976562 31.925781 86.023438 C 32.601562 86.851562 32.75 87.601562 32.976562 88.726562 C 33.199219 90.601562 33.050781 93.226562 32.300781 96.375 C 31.023438 102 24.875 112.800781 23.300781 119.023438 C 22.25 123.226562 23.523438 128.773438 22.023438 129.898438 C 21.199219 130.574219 18.800781 130.125 18.351562 129.300781 C 17.523438 127.425781 24.875 120.148438 26.976562 114.75 C 29.375 108.824219 29.375 97.5 31.398438 94.949219 C 32.148438 94.050781 33.199219 93.75 33.949219 93.824219 C 34.625 93.898438 35.449219 94.648438 35.75 95.25 C 35.976562 95.773438 35.976562 96.375 35.824219 96.976562 C 35.601562 97.875 34.925781 98.625 34.023438 100.199219 C 31.773438 104.023438 24.125 114 21.5 120.300781 C 19.398438 125.175781 19.175781 134.023438 18.050781 134.175781 C 17.601562 134.25 16.625 132.824219 16.699219 131.773438 C 16.925781 129.074219 25.101562 122.175781 27.648438 118.425781 C 29.375 115.875 30.199219 114.449219 31.476562 111.75 C 33.125 108.074219 35.375 102.375 36.5 98.25 C 37.398438 95.023438 36.949219 89.625 38 89.175781 C 38.601562 88.949219 40.023438 89.851562 40.324219 90.898438 C 41 93.898438 33.273438 103.949219 30.5 110.699219 C 27.726562 117.449219 22.851562 128.550781 23.75 131.476562 C 24.125 132.523438 25.101562 132.675781 26 133.050781 C 27.125 133.648438 28.175781 133.800781 29.976562 134.25 C 33.875 135.148438 45.648438 136.5 48.800781 137.550781 C 49.925781 137.925781 50.375 138.074219 50.976562 138.601562 C 51.574219 139.050781 52.023438 139.5 52.324219 140.398438 C 53 142.199219 52.925781 145.800781 52.773438 149.324219 C 52.550781 154.726562 51.574219 163.648438 50.074219 169.5 C 48.875 174.226562 46.851562 180 45.273438 181.949219 C 44.601562 182.773438 43.925781 183.148438 43.175781 183.226562 C 42.5 183.300781 41.449219 182.851562 41 182.25 C 40.550781 181.726562 40.398438 180.976562 40.550781 179.851562 C 40.925781 177.074219 46.175781 169.726562 47.75 165.976562 C 48.800781 163.574219 49.398438 162.074219 49.851562 159.824219 C 50.449219 157.125 49.851562 152.398438 50.898438 150.824219 C 51.5 150 52.550781 149.476562 53.300781 149.550781 C 54.050781 149.699219 55.175781 150.300781 55.324219 151.425781 C 55.925781 154.648438 45.875 167.550781 43.476562 174.148438 C 41.824219 178.875 42.199219 182.773438 40.851562 186.824219 C 39.574219 190.726562 36.949219 194.625 35.675781 198 C 34.625 200.625 34.023438 202.800781 33.351562 205.125 C 32.675781 207.449219 31.773438 210.300781 31.625 212.101562 C 31.625 213.148438 32.375 214.351562 32 214.726562 C 31.625 215.101562 29.449219 214.875 29.226562 214.273438 C 28.851562 213.375 32.300781 210.449219 33.5 208.050781 C 34.925781 205.199219 35.523438 202.800781 36.949219 198.148438 C 40.25 187.5 48.800781 156.074219 51.125 144.898438 C 52.101562 139.875 52.398438 137.550781 52.699219 133.800781 C 53 129.976562 53.300781 126.523438 52.925781 122.101562 C 52.476562 116.101562 48.875 104.324219 49.25 101.175781 C 49.324219 100.199219 49.625 99.675781 50 99.300781 C 50.375 99 50.824219 98.773438 51.351562 98.851562 C 51.949219 98.925781 53.148438 99.75 53.449219 100.351562 C 53.601562 100.800781 53.601562 101.324219 53.375 101.699219 C 53.148438 102.226562 52.476562 102.898438 51.875 103.050781 C 51.273438 103.199219 50.375 102.898438 49.925781 102.601562 C 49.550781 102.300781 49.324219 101.773438 49.25 101.398438 C 49.175781 100.949219 49.175781 100.425781 49.476562 100.050781 C 49.773438 99.523438 50.523438 98.851562 51.125 98.851562 C 51.800781 98.851562 52.699219 99.226562 53.375 100.125 C 55.101562 102.601562 56.449219 112.574219 57.125 117.75 C 57.726562 121.726562 57.800781 124.800781 57.726562 128.398438 C 57.726562 132.148438 57.574219 135.226562 56.898438 139.949219 C 55.773438 147.523438 53 159.148438 50.449219 169.273438 C 47.675781 180.375 43.773438 195.148438 40.699219 203.625 C 38.75 208.800781 36.726562 213.601562 35.148438 215.925781 C 34.476562 216.976562 34.023438 217.425781 33.199219 217.875 C 32.148438 218.476562 30.425781 219 29.375 218.773438 C 28.476562 218.550781 27.800781 217.648438 27.273438 216.976562 C 26.824219 216.300781 26.601562 215.699219 26.449219 214.648438 C 26.300781 212.550781 27.351562 208.050781 28.023438 205.050781 C 28.625 202.425781 29.226562 200.398438 30.199219 197.699219 C 31.550781 194.25 34.324219 190.050781 35.675781 186.074219 C 37.023438 182.175781 37.25 177.449219 38.300781 174 C 39.125 171.449219 39.800781 170.023438 41.226562 167.324219 C 43.476562 162.898438 48.574219 152.324219 51.199219 150.375 C 52.175781 149.625 53.148438 149.476562 53.898438 149.699219 C 54.5 149.925781 55.023438 150.601562 55.324219 151.425781 C 55.851562 152.925781 55.398438 156 54.800781 158.699219 C 54.050781 162.300781 52.175781 167.175781 50.523438 171.074219 C 48.949219 174.898438 46.625 180.226562 45.273438 181.949219 C 44.75 182.625 44.375 182.925781 43.851562 183.148438 C 43.25 183.300781 42.5 183.300781 41.976562 183 C 41.300781 182.625 40.550781 181.726562 40.398438 180.449219 C 40.101562 177.601562 44.601562 171.074219 45.800781 165.449219 C 47.300781 158.699219 51.273438 147.148438 47.75 142.5 C 44.226562 137.773438 29.375 139.5 24.425781 137.773438 C 22.023438 136.875 20.074219 136.199219 19.25 135.074219 C 18.648438 134.25 18.726562 133.648438 18.800781 132.375 C 19.101562 128.925781 22.175781 120 24.726562 113.625 C 27.5 106.726562 32.226562 97.351562 35.148438 92.699219 C 36.800781 90.148438 38.375 87.300781 39.726562 87.226562 C 40.550781 87.074219 41.75 88.050781 42.125 89.324219 C 43.101562 92.398438 38.976562 103.425781 37.101562 108.601562 C 35.75 112.199219 34.625 114.375 32.824219 117.523438 C 30.648438 121.273438 27.199219 126.300781 24.574219 129.375 C 22.625 131.625 20.75 133.574219 18.875 134.699219 C 17.523438 135.523438 15.800781 136.351562 14.898438 136.050781 C 14.074219 135.675781 13.550781 134.625 13.398438 133.273438 C 13.023438 130.273438 15.273438 123.75 17.601562 118.351562 C 20.675781 111.148438 28.773438 96.898438 31.773438 94.5 C 32.675781 93.824219 33.273438 93.675781 33.949219 93.824219 C 34.699219 94.050781 35.675781 95.175781 35.898438 95.851562 C 36.050781 96.226562 35.898438 96.976562 35.824219 96.976562 C 35.75 96.976562 35.523438 95.398438 35.375 95.398438 C 34.773438 95.398438 33.574219 108.148438 32.148438 113.023438 C 31.101562 116.550781 29.976562 119.023438 28.398438 122.023438 C 26.75 125.324219 24.050781 130.425781 22.25 132.074219 C 21.425781 132.898438 20.75 133.351562 19.925781 133.425781 C 19.101562 133.5 17.898438 133.273438 17.375 132.675781 C 16.773438 132 16.851562 130.800781 16.851562 129.300781 C 16.851562 126.375 17.375 120.523438 18.574219 116.324219 C 19.851562 111.898438 22.925781 107.699219 24.5 103.273438 C 26.074219 99 28.625 92.550781 28.101562 90.300781 C 27.875 89.398438 27.5 88.949219 26.601562 88.574219 C 24.800781 87.824219 19.476562 89.773438 16.101562 89.625 C 12.875 89.476562 8.375 88.726562 6.726562 87.898438 C 5.976562 87.523438 5.601562 87.226562 5.375 86.699219 C 5.074219 86.023438 5.074219 84.898438 5.449219 84.300781 C 5.75 83.699219 6.574219 83.101562 7.398438 83.023438 C 8.675781 82.875 12.5 84.601562 12.5 84.824219 C 12.5 84.976562 10.25 85.125 10.175781 84.898438 C 10.101562 84.523438 13.550781 81.976562 14.375 82.273438 C 14.898438 82.5 15.5 84.449219 15.125 84.824219 C 14.601562 85.351562 10.699219 83.925781 9.351562 82.949219 C 8.300781 82.199219 7.175781 81.074219 7.25 80.175781 C 7.324219 79.125 8.675781 77.773438 10.101562 77.25 C 12.5 76.5 19.699219 77.625 21.199219 79.050781 C 21.875 79.726562 22.101562 81.226562 21.726562 81.601562 C 20.976562 82.273438 16.023438 79.425781 13.773438 79.199219 C 12.050781 79.050781 10.398438 79.949219 9.125 79.648438 C 8.074219 79.425781 6.5 78.074219 6.574219 78 C 6.648438 77.851562 9.050781 78.375 9.125 78.898438 C 9.273438 79.800781 4.773438 83.476562 3.351562 83.625 C 2.523438 83.699219 1.699219 83.023438 1.324219 82.574219 C 0.949219 82.125 0.800781 81.75 0.875 80.851562 C 1.25 77.25 9.949219 61.050781 13.851562 53.625 C 16.625 48.300781 18.648438 45.898438 21.574219 40.199219 C 26.226562 31.050781 34.175781 5.925781 38.148438 3.375 C 39.273438 2.699219 40.476562 2.925781 41.074219 3.375 C 41.601562 3.824219 41.75 4.726562 41.675781 5.851562 C 41.523438 8.023438 38.898438 12 37.625 15.976562 C 36.050781 21.148438 35.300781 31.800781 33.5 34.351562 C 32.824219 35.324219 32 35.699219 31.324219 35.699219 C 30.726562 35.699219 29.898438 35.175781 29.523438 34.726562 C 29.226562 34.199219 29.226562 33.675781 29.375 32.625 C 29.898438 28.949219 35.976562 11.023438 38.824219 8.25 C 39.800781 7.273438 40.925781 6.976562 41.601562 7.199219 C 42.273438 7.5 42.949219 8.625 42.949219 9.898438 C 42.949219 12.976562 37.101562 20.398438 35 26.101562 C 32.824219 31.875 32.074219 41.925781 30.050781 44.398438 C 29.226562 45.300781 28.101562 45.824219 27.351562 45.601562 C 26.675781 45.375 25.925781 44.175781 25.851562 43.125 C 25.699219 41.324219 27.800781 39 29.074219 35.699219 C 31.550781 29.175781 35.675781 9.375 38.75 6.300781 C 39.648438 5.324219 40.773438 5.023438 41.449219 5.324219 C 42.125 5.625 42.648438 6.75 42.726562 7.949219 C 42.875 10.050781 40.699219 13.425781 39.648438 17.398438 C 37.851562 24 36.273438 40.648438 34.101562 44.175781 C 33.425781 45.226562 32.675781 45.898438 32 45.824219 C 31.324219 45.824219 30.351562 44.851562 30.050781 43.949219 C 29.601562 42.449219 30.949219 39.375 31.550781 37.125 C 32.148438 34.949219 32.601562 33.300781 33.648438 30.675781 C 35.226562 26.625 38.300781 19.726562 40.851562 15.226562 C 42.949219 11.398438 45.273438 6.074219 47.300781 5.023438 C 48.273438 4.5 49.625 4.648438 50.226562 5.101562 C 50.75 5.625 50.898438 6.601562 50.75 7.875 C 50.449219 10.949219 47.375 17.101562 44.675781 23.101562 C 40.476562 32.550781 33.199219 48 27.050781 58.5 C 21.800781 67.425781 14.523438 81.226562 10.550781 82.351562 C 9.125 82.800781 7.476562 81.824219 6.800781 80.773438 C 6.125 79.574219 6.875 77.398438 7.175781 75.300781 C 7.625 72.449219 8.449219 69.300781 9.800781 65.398438 C 12.050781 59.324219 17.226562 45.300781 20.148438 42.824219 C 21.199219 42 22.324219 41.773438 23 42.148438 C 23.675781 42.449219 24.125 43.875 24.050781 44.851562 C 23.976562 45.976562 22.773438 47.699219 22.101562 48.375 C 21.726562 48.824219 21.273438 49.125 20.824219 49.125 C 20.226562 49.125 19.023438 48.601562 18.648438 48.074219 C 18.351562 47.625 18.425781 47.175781 18.648438 46.125 C 19.324219 41.625 28.476562 13.949219 31.699219 10.199219 C 32.601562 9.226562 33.351562 9 34.023438 9 C 34.625 9 35.148438 9.375 35.523438 9.75 C 35.824219 10.199219 36.125 10.726562 36.125 11.324219 C 36.125 12.226562 35.523438 13.5 34.851562 14.625 C 33.875 16.199219 32 18.976562 30.574219 19.574219 C 29.601562 20.023438 28.25 19.949219 27.726562 19.425781 C 27.199219 19.050781 27.050781 18.148438 27.273438 17.101562 C 27.875 14.023438 35.148438 2.324219 37.625 0.824219 C 38.449219 0.300781 39.199219 0.375 39.726562 0.601562 C 40.25 0.824219 40.476562 1.199219 40.699219 2.101562 C 41.75 6.226562 39.648438 36.824219 37.101562 40.199219 C 36.425781 41.023438 35.601562 41.101562 35 40.949219 C 34.324219 40.800781 33.800781 40.199219 33.5 39.226562 C 32.675781 36.449219 34.550781 26.851562 35.824219 21.074219 C 37.101562 15.675781 38.824219 7.574219 40.851562 5.699219 C 41.675781 4.875 42.800781 4.648438 43.398438 4.949219 C 44 5.25 44.449219 7.425781 44.449219 7.425781 " clip-rule="nonzero"/></clipPath><clipPath id="b1d2293def"><rect x="0" width="58" y="0" height="219"/></clipPath></defs><g clip-path="url(#a9f36c7c0c)"><path fill="#ffffff" d="M 249.949219 163.609375 C 247.527344 162 244.78125 161.761719 242.003906 161.730469 C 237.207031 161.679688 232.414062 161.710938 227.363281 161.710938 C 228.921875 157.96875 230.363281 154.460938 231.886719 150.953125 C 235.125 143.445312 238.410156 135.988281 241.613281 128.480469 C 245.121094 120.28125 240.039062 111.875 232.054688 111.671875 C 227.039062 111.535156 222.042969 111.636719 217.042969 111.519531 C 214.855469 111.46875 214.824219 111.484375 215.671875 109.554688 C 219.332031 101.199219 222.703125 92.695312 226.515625 84.390625 C 227.566406 82.085938 228.734375 79.730469 228.804688 77.085938 C 228.957031 71.207031 225.226562 65.308594 216.433594 65.257812 C 200.605469 65.175781 184.777344 65.207031 168.953125 65.242188 C 163.683594 65.257812 159.378906 67.242188 157.15625 72.273438 C 152.785156 82.203125 148.566406 92.203125 144.3125 102.183594 C 139.382812 113.738281 134.5 125.3125 129.570312 136.871094 C 126.945312 143.054688 124.234375 149.191406 121.625 155.375 C 118.183594 163.542969 123.640625 171.792969 131.367188 171.945312 C 136.433594 172.050781 141.515625 171.980469 146.582031 172.050781 C 147.652344 172.066406 148.246094 172.101562 147.601562 173.4375 C 146.632812 175.4375 145.855469 177.554688 144.972656 179.605469 C 141.296875 188.199219 137.5 196.738281 133.976562 205.378906 C 130.738281 213.363281 136.332031 221.835938 144.6875 221.648438 C 151.480469 221.496094 158.277344 221.632812 165.054688 221.546875 C 167.546875 221.511719 167.527344 221.546875 166.832031 223.816406 C 163.511719 234.78125 160.226562 245.746094 156.886719 256.691406 C 153.242188 268.65625 149.515625 280.585938 145.90625 292.546875 C 144.871094 295.9375 145.125 299.308594 146.90625 302.476562 C 150.90625 309.578125 162.257812 309.816406 167.222656 302.292969 C 175.203125 290.210938 183.644531 278.433594 191.964844 266.570312 C 201.519531 252.929688 211.164062 239.355469 220.769531 225.75 C 231.480469 210.582031 242.15625 195.417969 252.898438 180.285156 C 256.8125 174.792969 255.542969 167.339844 249.949219 163.609375 Z M 238.054688 181.980469 C 230.820312 192.265625 223.582031 202.550781 216.332031 212.820312 C 209.09375 223.105469 201.824219 233.355469 194.589844 243.644531 C 185.542969 256.503906 176.644531 269.484375 167.445312 282.226562 C 164.191406 286.71875 161.429688 291.53125 158.023438 295.902344 C 157.699219 296.328125 157.566406 297.242188 156.785156 296.835938 C 156.074219 296.460938 156.597656 295.765625 156.769531 295.242188 C 161.410156 280.007812 166.039062 264.792969 170.679688 249.558594 C 173.035156 241.8125 175.441406 234.085938 177.796875 226.34375 C 179.222656 221.664062 180.492188 216.953125 181.964844 212.3125 C 182.472656 210.71875 182.015625 210.480469 180.527344 210.480469 C 169.121094 210.515625 157.699219 210.480469 146.296875 210.480469 C 143.921875 210.480469 143.941406 210.445312 144.820312 208.378906 C 150.753906 194.46875 156.667969 180.539062 162.597656 166.609375 C 163.140625 165.339844 163.683594 164.066406 164.292969 162.832031 C 164.988281 161.425781 164.527344 160.964844 163.019531 160.984375 C 156.226562 161.035156 149.429688 161.015625 142.636719 161.015625 C 139.535156 161.015625 136.433594 160.964844 133.332031 161 C 132.042969 161 131.46875 160.847656 132.128906 159.339844 C 135.671875 151.136719 139.128906 142.886719 142.617188 134.667969 C 146.601562 125.28125 150.601562 115.890625 154.597656 106.503906 C 158.714844 96.8125 162.886719 87.136719 166.984375 77.441406 C 167.460938 76.324219 168.238281 76.308594 169.207031 76.308594 C 183.644531 76.324219 198.097656 76.339844 212.535156 76.339844 C 217.804688 76.339844 217.738281 76.308594 215.652344 81.152344 C 211.417969 91 207.25 100.894531 203.046875 110.757812 C 201.671875 113.960938 200.300781 117.164062 198.929688 120.367188 C 198.011719 122.5 198.03125 122.550781 200.316406 122.550781 C 209.484375 122.550781 218.652344 122.535156 227.820312 122.535156 C 228.53125 122.535156 229.261719 122.570312 229.988281 122.535156 C 231.414062 122.484375 231.902344 122.875 231.242188 124.382812 C 227.820312 132.210938 224.449219 140.074219 221.09375 147.9375 C 217.925781 155.375 214.773438 162.832031 211.601562 170.285156 C 211.484375 170.589844 211.382812 170.929688 211.179688 171.167969 C 209.859375 172.660156 211.0625 172.792969 212.128906 172.8125 C 214.5 172.878906 216.875 172.777344 219.246094 172.84375 C 223.972656 172.980469 228.683594 172.761719 233.429688 173.097656 C 236.105469 173.285156 238.917969 172.8125 241.664062 172.828125 C 242.425781 172.828125 243.207031 172.761719 244.121094 173.203125 C 242.054688 176.167969 240.070312 179.082031 238.054688 181.980469 Z M 238.054688 181.980469 " fill-opacity="1" fill-rule="nonzero"/></g><path fill="#ffffff" d="M 244.003906 173.21875 C 241.953125 176.183594 239.953125 179.097656 237.917969 181.980469 C 230.683594 192.265625 223.449219 202.535156 216.195312 212.820312 C 208.941406 223.089844 201.671875 233.355469 194.453125 243.644531 C 185.40625 256.503906 176.507812 269.484375 167.308594 282.226562 C 164.054688 286.71875 161.292969 291.53125 157.886719 295.902344 C 157.566406 296.308594 157.410156 297.242188 156.648438 296.835938 C 155.9375 296.460938 156.464844 295.785156 156.632812 295.242188 C 161.257812 280.007812 165.902344 264.773438 170.542969 249.558594 C 172.898438 241.8125 175.324219 234.085938 177.660156 226.34375 C 179.085938 221.683594 180.355469 216.972656 181.832031 212.3125 C 182.339844 210.703125 181.882812 210.464844 180.390625 210.480469 C 168.984375 210.515625 157.566406 210.496094 146.160156 210.480469 C 143.789062 210.480469 143.804688 210.445312 144.6875 208.378906 C 150.617188 194.46875 156.546875 180.523438 162.460938 166.609375 C 163.003906 165.339844 163.546875 164.066406 164.15625 162.832031 C 164.835938 161.40625 164.375 160.964844 162.886719 160.984375 C 156.089844 161.035156 149.296875 161.015625 142.5 161.015625 C 139.398438 161.015625 136.296875 160.964844 133.195312 161 C 131.910156 161.015625 131.351562 160.863281 131.992188 159.339844 C 135.535156 151.136719 138.992188 142.902344 142.484375 134.667969 C 146.464844 125.28125 150.464844 115.890625 154.464844 106.503906 C 158.597656 96.8125 162.75 87.152344 166.851562 77.441406 C 167.324219 76.324219 168.105469 76.308594 169.070312 76.308594 C 183.507812 76.324219 197.960938 76.339844 212.398438 76.339844 C 217.6875 76.339844 217.601562 76.308594 215.519531 81.152344 C 211.265625 91 207.113281 100.878906 202.910156 110.757812 C 201.539062 113.960938 200.164062 117.164062 198.792969 120.367188 C 197.878906 122.5 197.910156 122.550781 200.183594 122.550781 C 209.347656 122.550781 218.515625 122.535156 227.683594 122.535156 C 228.414062 122.535156 229.140625 122.570312 229.855469 122.535156 C 231.277344 122.484375 231.769531 122.875 231.109375 124.382812 C 227.683594 132.210938 224.3125 140.074219 220.957031 147.9375 C 217.769531 155.375 214.621094 162.832031 211.46875 170.285156 C 211.332031 170.589844 211.246094 170.929688 211.042969 171.167969 C 209.722656 172.675781 210.925781 172.792969 211.992188 172.8125 C 214.367188 172.863281 216.738281 172.777344 219.109375 172.84375 C 223.839844 172.980469 228.566406 172.761719 233.292969 173.097656 C 235.972656 173.285156 238.765625 172.828125 241.527344 172.828125 C 242.308594 172.84375 243.085938 172.761719 244.003906 173.21875 Z M 244.003906 173.21875 " fill-opacity="1" fill-rule="nonzero"/><g clip-path="url(#7042dfc75c)"><g clip-path="url(#b285109440)"><g transform="matrix(1, 0, 0, 1, 155, 71)"><g clip-path="url(#e451e711e9)"><g clip-path="url(#3ea061abbb)"><g clip-path="url(#d4b09cf268)"><rect x="-237.5" width="540" fill="#ffffff" height="539.999987" y="-153.499998" fill-opacity="1"/></g></g></g></g></g></g><g clip-path="url(#7d09ff1796)"><g clip-path="url(#bf705df603)"><g transform="matrix(1, 0, 0, 1, 129, 155)"><g clip-path="url(#3b6044e1e5)"><g clip-path="url(#704f60eb75)"><g clip-path="url(#f998f329cd)"><rect x="-211.5" width="540" fill="#ffffff" height="539.999987" y="-237.499998" fill-opacity="1"/></g></g></g></g></g></g><g clip-path="url(#b290171146)"><g clip-path="url(#f18021a17b)"><g transform="matrix(1, 0, 0, 1, 136, 204)"><g clip-path="url(#a6fa9f76a9)"><g clip-path="url(#e12badb687)"><g clip-path="url(#ce4afbaf3a)"><rect x="-218.5" width="540" fill="#ffffff" height="539.999987" y="-286.499998" fill-opacity="1"/></g></g></g></g></g></g><g clip-path="url(#312a956168)"><g clip-path="url(#c05d48101c)"><g transform="matrix(1, 0, 0, 1, 150, 80)"><g clip-path="url(#56b4ea65db)"><g clip-path="url(#ca844d1cb5)"><g clip-path="url(#706ed921f7)"><rect x="-232.5" width="540" fill="#ffffff" height="539.999987" y="-162.499998" fill-opacity="1"/></g></g></g></g></g></g><g clip-path="url(#28710d35ec)"><g clip-path="url(#b1c7957b7c)"><g transform="matrix(1, 0, 0, 1, 124, 78)"><g clip-path="url(#b1d2293def)"><g clip-path="url(#912c1d2a51)"><g clip-path="url(#c76e598f96)"><rect x="-206.5" width="540" fill="#ffffff" height="539.999987" y="-160.499998" fill-opacity="1"/></g></g></g></g></g></g></svg>