<svg xmlns="http://www.w3.org/2000/svg" xmlns:xlink="http://www.w3.org/1999/xlink" width="500" zoomAndPan="magnify" viewBox="0 0 375 374.999991" height="500" preserveAspectRatio="xMidYMid meet" version="1.2"><g id="e17aa73ed1"><path style=" stroke:none;fill-rule:nonzero;fill:#333333;fill-opacity:1;" d="M 282.992188 150.714844 C 279.28125 148.25 275.078125 147.886719 270.824219 147.835938 C 263.484375 147.757812 256.140625 147.808594 248.410156 147.808594 C 250.796875 142.074219 253 136.703125 255.335938 131.335938 C 260.292969 119.839844 265.324219 108.425781 270.226562 96.933594 C 275.597656 84.375 267.816406 71.507812 255.59375 71.195312 C 247.914062 70.988281 240.261719 71.144531 232.609375 70.960938 C 229.261719 70.882812 229.210938 70.910156 230.507812 67.953125 C 236.109375 55.160156 241.273438 42.136719 247.113281 29.425781 C 248.71875 25.898438 250.511719 22.289062 250.613281 18.242188 C 250.847656 9.242188 245.140625 0.210938 231.675781 0.132812 C 207.441406 0.00390625 183.210938 0.0546875 158.980469 0.109375 C 150.910156 0.132812 144.320312 3.167969 140.921875 10.875 C 134.226562 26.078125 127.769531 41.386719 121.257812 56.667969 C 113.707031 74.359375 106.234375 92.082031 98.683594 109.773438 C 94.664062 119.242188 90.511719 128.636719 86.515625 138.105469 C 81.25 150.609375 89.605469 163.246094 101.433594 163.480469 C 109.191406 163.632812 116.976562 163.53125 124.734375 163.632812 C 126.367188 163.660156 127.273438 163.710938 126.289062 165.761719 C 124.808594 168.824219 123.617188 172.066406 122.269531 175.207031 C 116.636719 188.359375 110.828125 201.433594 105.429688 214.667969 C 100.476562 226.886719 109.035156 239.859375 121.828125 239.574219 C 132.230469 239.339844 142.632812 239.546875 153.011719 239.417969 C 156.824219 239.367188 156.800781 239.417969 155.734375 242.894531 C 150.652344 259.679688 145.617188 276.464844 140.507812 293.226562 C 134.929688 311.542969 129.222656 329.808594 123.695312 348.125 C 122.113281 353.3125 122.5 358.476562 125.226562 363.328125 C 131.347656 374.199219 148.730469 374.5625 156.332031 363.042969 C 168.550781 344.542969 181.472656 326.511719 194.210938 308.351562 C 208.84375 287.464844 223.605469 266.683594 238.316406 245.851562 C 254.714844 222.632812 271.058594 199.410156 287.507812 176.242188 C 293.5 167.835938 291.554688 156.421875 282.992188 150.714844 Z M 264.78125 178.839844 C 253.703125 194.585938 242.625 210.335938 231.519531 226.054688 C 220.441406 241.804688 209.3125 257.5 198.234375 273.25 C 184.378906 292.941406 170.757812 312.8125 156.671875 332.324219 C 151.6875 339.199219 147.460938 346.566406 142.246094 353.261719 C 141.753906 353.910156 141.542969 355.3125 140.351562 354.6875 C 139.261719 354.117188 140.066406 353.054688 140.324219 352.25 C 147.433594 328.925781 154.515625 305.628906 161.625 282.304688 C 165.230469 270.445312 168.914062 258.617188 172.523438 246.761719 C 174.703125 239.597656 176.648438 232.386719 178.902344 225.277344 C 179.683594 222.839844 178.980469 222.476562 176.699219 222.476562 C 159.238281 222.527344 141.753906 222.476562 124.292969 222.476562 C 120.660156 222.476562 120.683594 222.425781 122.035156 219.257812 C 131.113281 197.957031 140.167969 176.632812 149.25 155.304688 C 150.082031 153.359375 150.910156 151.414062 151.84375 149.519531 C 152.90625 147.367188 152.207031 146.667969 149.898438 146.691406 C 139.496094 146.769531 129.089844 146.746094 118.6875 146.746094 C 113.941406 146.746094 109.191406 146.667969 104.445312 146.71875 C 102.472656 146.71875 101.589844 146.484375 102.601562 144.175781 C 108.023438 131.621094 113.316406 118.984375 118.660156 106.402344 C 124.757812 92.027344 130.882812 77.65625 137.003906 63.28125 C 143.308594 48.441406 149.691406 33.628906 155.96875 18.789062 C 156.695312 17.074219 157.890625 17.050781 159.367188 17.050781 C 181.472656 17.074219 203.601562 17.101562 225.707031 17.101562 C 233.777344 17.101562 233.671875 17.050781 230.480469 24.46875 C 223.996094 39.542969 217.613281 54.695312 211.179688 69.792969 C 209.078125 74.699219 206.976562 79.601562 204.875 84.503906 C 203.472656 87.773438 203.5 87.851562 207 87.851562 C 221.039062 87.851562 235.074219 87.824219 249.109375 87.824219 C 250.199219 87.824219 251.316406 87.878906 252.429688 87.824219 C 254.609375 87.746094 255.363281 88.34375 254.351562 90.652344 C 249.109375 102.640625 243.945312 114.679688 238.808594 126.714844 C 233.957031 138.105469 229.132812 149.519531 224.28125 160.9375 C 224.097656 161.402344 223.945312 161.921875 223.632812 162.285156 C 221.609375 164.570312 223.449219 164.777344 225.085938 164.800781 C 228.71875 164.90625 232.347656 164.75 235.980469 164.855469 C 243.21875 165.0625 250.433594 164.722656 257.695312 165.242188 C 261.796875 165.527344 266.101562 164.800781 270.304688 164.828125 C 271.472656 164.828125 272.667969 164.722656 274.066406 165.398438 C 270.902344 169.9375 267.867188 174.402344 264.78125 178.839844 Z M 264.78125 178.839844 "/><path style=" stroke:none;fill-rule:nonzero;fill:#ffffff;fill-opacity:1;" d="M 273.886719 165.425781 C 270.746094 169.964844 267.683594 174.425781 264.570312 178.839844 C 253.492188 194.585938 242.414062 210.308594 231.3125 226.054688 C 220.207031 241.777344 209.078125 257.5 198.023438 273.25 C 184.171875 292.941406 170.550781 312.8125 156.460938 332.324219 C 151.480469 339.199219 147.253906 346.566406 142.039062 353.261719 C 141.542969 353.882812 141.3125 355.3125 140.144531 354.6875 C 139.054688 354.117188 139.859375 353.078125 140.117188 352.25 C 147.199219 328.925781 154.308594 305.601562 161.417969 282.304688 C 165.023438 270.445312 168.734375 258.617188 172.3125 246.761719 C 174.492188 239.625 176.441406 232.414062 178.695312 225.277344 C 179.476562 222.8125 178.773438 222.449219 176.492188 222.476562 C 159.03125 222.527344 141.542969 222.503906 124.082031 222.476562 C 120.453125 222.476562 120.476562 222.425781 121.828125 219.257812 C 130.90625 197.957031 139.988281 176.605469 149.042969 155.304688 C 149.871094 153.359375 150.703125 151.414062 151.636719 149.519531 C 152.675781 147.339844 151.972656 146.667969 149.691406 146.691406 C 139.289062 146.769531 128.882812 146.746094 118.480469 146.746094 C 113.730469 146.746094 108.984375 146.667969 104.238281 146.71875 C 102.265625 146.746094 101.410156 146.511719 102.394531 144.175781 C 107.816406 131.621094 113.109375 119.011719 118.453125 106.402344 C 124.550781 92.027344 130.675781 77.65625 136.796875 63.28125 C 143.128906 48.441406 149.484375 33.652344 155.761719 18.789062 C 156.488281 17.074219 157.683594 17.050781 159.160156 17.050781 C 181.265625 17.074219 203.394531 17.101562 225.5 17.101562 C 233.59375 17.101562 233.464844 17.050781 230.273438 24.46875 C 223.761719 39.542969 217.40625 54.667969 210.972656 69.792969 C 208.871094 74.699219 206.769531 79.601562 204.667969 84.503906 C 203.265625 87.773438 203.316406 87.851562 206.792969 87.851562 C 220.832031 87.851562 234.867188 87.824219 248.902344 87.824219 C 250.015625 87.824219 251.132812 87.878906 252.222656 87.824219 C 254.402344 87.746094 255.15625 88.34375 254.140625 90.652344 C 248.902344 102.640625 243.738281 114.679688 238.601562 126.714844 C 233.722656 138.105469 228.898438 149.519531 224.074219 160.9375 C 223.867188 161.402344 223.734375 161.921875 223.425781 162.285156 C 221.402344 164.59375 223.242188 164.777344 224.878906 164.800781 C 228.507812 164.878906 232.140625 164.75 235.773438 164.855469 C 243.011719 165.0625 250.25 164.722656 257.488281 165.242188 C 261.589844 165.527344 265.871094 164.828125 270.097656 164.828125 C 271.292969 164.855469 272.484375 164.722656 273.886719 165.425781 Z M 273.886719 165.425781 "/></g></svg>